<?xml version="1.0" encoding="utf-8"?>
<!-- Generator: Adobe Illustrator 16.0.3, SVG Export Plug-In . SVG Version: 6.00 Build 0)  -->
<!DOCTYPE svg PUBLIC "-//W3C//DTD SVG 1.1//EN" "http://www.w3.org/Graphics/SVG/1.1/DTD/svg11.dtd">
<svg version="1.1" id="Camada_1" xmlns="http://www.w3.org/2000/svg" xmlns:xlink="http://www.w3.org/1999/xlink" x="0px" y="0px"
	 width="128.565px" height="120.917px" viewBox="0 0 128.565 120.917" enable-background="new 0 0 128.565 120.917"
	 xml:space="preserve">
<g>
	<g>
		<path fill="#003A5D" d="M4.093,107.722v7.445h-3.59V94.948c2.393-0.102,3.793-0.15,4.197-0.15c3.193,0,5.531,0.488,7.01,1.469
			c1.475,0.98,2.215,2.514,2.215,4.592c0,4.641-2.734,6.961-8.205,6.961C5.315,107.819,4.771,107.788,4.093,107.722z M4.093,98.054
			v6.479c0.607,0.064,1.084,0.096,1.434,0.096c1.639,0,2.838-0.273,3.592-0.82c0.754-0.549,1.133-1.438,1.133-2.672
			c0-2.1-1.689-3.152-5.068-3.152C4.804,97.983,4.442,98.009,4.093,98.054z"/>
		<path fill="#003A5D" d="M16.536,94.935h3.592v13.715c0,1.086,0.33,1.969,0.992,2.652c0.664,0.68,1.576,1.02,2.734,1.02
			c1.299,0,2.311-0.332,3.033-1s1.084-1.582,1.084-2.742V94.935h3.592v13.922c0,2.08-0.699,3.709-2.094,4.887
			s-3.256,1.77-5.586,1.77c-2.35,0-4.158-0.576-5.434-1.727c-1.277-1.152-1.914-2.799-1.914-4.943V94.935z"/>
		<path fill="#003A5D" d="M49.003,96.011l-1.477,2.971c-0.801-0.803-2.09-1.201-3.865-1.201c-1.686,0-3.068,0.705-4.146,2.119
			c-1.076,1.414-1.615,3.203-1.615,5.365c0,2.164,0.5,3.881,1.498,5.152c1,1.27,2.334,1.904,4,1.904c1.906,0,3.396-0.68,4.473-2.043
			l1.674,2.9c-1.465,1.557-3.611,2.334-6.438,2.334s-5.021-0.93-6.586-2.791c-1.566-1.857-2.348-4.395-2.348-7.609
			c0-2.992,0.865-5.496,2.6-7.506c1.738-2.014,3.959-3.018,6.666-3.018C45.759,94.589,47.612,95.063,49.003,96.011z"/>
		<path fill="#003A5D" d="M78.701,115.181h-3.48l-2.1-10.91l-4.074,11.174h-1.283l-4.076-11.174l-2.181,10.91H58.04l4.07-20.246
			h1.909l4.377,13.631l4.283-13.631h1.895L78.701,115.181z"/>
		<path fill="#003A5D" d="M81.063,115.167v-11.959H79.17v-2.832h5.387v14.791H81.063z M82.846,94.644
			c0.553,0,1.025,0.195,1.414,0.588c0.393,0.391,0.588,0.861,0.588,1.414s-0.195,1.025-0.588,1.416
			c-0.389,0.391-0.861,0.586-1.414,0.586s-1.027-0.195-1.416-0.586c-0.393-0.391-0.588-0.863-0.588-1.416s0.195-1.023,0.588-1.414
			C81.818,94.839,82.293,94.644,82.846,94.644z"/>
		<path fill="#003A5D" d="M97.527,115.167v-8.549c0-1.262-0.244-2.184-0.727-2.762c-0.484-0.58-1.271-0.869-2.367-0.869
			c-0.506,0-1.049,0.141-1.625,0.426c-0.574,0.285-1.021,0.641-1.346,1.064v10.689H88.01v-14.791h2.488l0.635,1.383
			c0.939-1.107,2.324-1.66,4.156-1.66c1.758,0,3.146,0.527,4.162,1.584c1.02,1.053,1.525,2.523,1.525,4.412v9.072H97.527z"/>
		<path fill="#003A5D" d="M112.373,113.69c-0.313,0.516-0.859,0.938-1.639,1.262c-0.775,0.328-1.59,0.492-2.438,0.492
			c-1.592,0-2.844-0.4-3.756-1.195c-0.91-0.797-1.367-1.928-1.367-3.391c0-1.713,0.643-3.053,1.928-4.018
			c1.285-0.971,3.107-1.451,5.477-1.451c0.404,0,0.883,0.066,1.434,0.207c0-1.74-1.098-2.609-3.299-2.609
			c-1.297,0-2.383,0.215-3.26,0.648l-0.744-2.68c1.186-0.57,2.6-0.857,4.238-0.857c2.256,0,3.908,0.514,4.957,1.541
			c1.051,1.027,1.578,2.971,1.578,5.834v3.164c0,1.969,0.393,3.209,1.186,3.715c-0.285,0.498-0.604,0.803-0.953,0.916
			c-0.35,0.117-0.75,0.176-1.201,0.176c-0.496,0-0.943-0.186-1.34-0.553C112.779,114.522,112.512,114.122,112.373,113.69z
			 M112.041,108.206c-0.59-0.117-1.033-0.178-1.326-0.178c-2.725,0-4.088,0.893-4.088,2.68c0,1.324,0.77,1.986,2.307,1.986
			c2.07,0,3.107-1.035,3.107-3.105V108.206z"/>
		<path fill="#003A5D" d="M117.732,114.214l1.229-2.748c1.029,0.82,2.195,1.229,3.496,1.229c1.342,0,2.016-0.479,2.016-1.436
			c0-0.561-0.205-1.021-0.609-1.381c-0.402-0.357-1.189-0.781-2.361-1.271c-2.551-1.059-3.826-2.541-3.826-4.445
			c0-1.279,0.488-2.279,1.465-2.99c0.977-0.713,2.223-1.072,3.744-1.072c1.535,0,2.982,0.346,4.336,1.037l-0.996,2.678
			c-0.754-0.643-1.805-0.965-3.146-0.965c-1.207,0-1.811,0.479-1.811,1.436c0,0.377,0.199,0.719,0.594,1.023
			c0.395,0.303,1.242,0.709,2.541,1.219c1.297,0.514,2.234,1.133,2.803,1.859c0.572,0.729,0.857,1.607,0.857,2.639
			c0,1.371-0.51,2.451-1.527,3.238s-2.4,1.182-4.15,1.182c-0.984,0-1.773-0.08-2.365-0.244
			C119.424,115.04,118.66,114.712,117.732,114.214z"/>
	</g>
	<g>
		<g>
			<path fill="#4F5858" d="M33.511,52.639l-0.074-0.178c-0.205-0.502-0.445-0.99-0.695-1.469c0.172,0,0.336,0,0.51,0h0.186h0.457
				h0.119l-0.049-0.115c-0.107-0.26-0.205-0.527-0.264-0.807c-0.051-0.262-0.061-0.533-0.064-0.803l-0.002-0.082h-0.082h-0.115
				h-0.523c-0.188,0-0.371,0-0.557,0c0.027-0.414,0.084-0.826,0.156-1.236l0.018-0.098h-0.096h-0.771h-0.021
				c-0.266,0-0.525,0-0.789,0h-0.07l-0.01,0.066c-0.08,0.42-0.137,0.842-0.164,1.268c-0.189,0-0.375,0-0.563,0
				c-0.217,0-0.43,0-0.645,0h-0.082v0.084c0.002,0.277,0.02,0.561,0.068,0.836c0.061,0.287,0.16,0.566,0.275,0.832l0.02,0.055h0.059
				c0.213,0,0.426,0,0.639,0c0.199,0,0.398,0,0.596,0c0.248,0.471,0.479,0.945,0.688,1.436c0.039,0.092,0.072,0.18,0.111,0.271
				c0.227,0.586,0.434,1.176,0.66,1.762l0.018,0.053h0.059c0.262,0,0.525,0,0.783,0h0.143h0.652h0.119l-0.041-0.111
				C33.942,53.815,33.735,53.227,33.511,52.639z M32.792,53.952c-0.205-0.57-0.404-1.148-0.645-1.707
				c-0.146-0.355-0.314-0.699-0.484-1.047c-0.113-0.236-0.232-0.479-0.338-0.717l-0.023-0.051h-0.051c-0.215,0-0.428,0-0.645,0
				c-0.193,0-0.385,0-0.578,0c-0.061-0.225-0.107-0.453-0.139-0.684c0.184,0,0.369,0,0.551,0c0.215,0.002,0.426,0,0.643,0h0.084
				l-0.004-0.084c-0.006-0.418,0.016-0.836,0.064-1.248h0.436h0.221c-0.051,0.414-0.078,0.834-0.07,1.252l0.008,0.08h0.08
				c0.213,0,0.43,0,0.641,0c0.191,0,0.381,0,0.566,0c0.031,0.23,0.076,0.457,0.137,0.684c-0.18,0-0.359,0-0.537,0
				c-0.213,0-0.428,0-0.641,0H31.94l0.051,0.117c0.264,0.592,0.57,1.162,0.822,1.76c0.227,0.539,0.422,1.096,0.623,1.645
				C33.224,53.952,33.009,53.952,32.792,53.952z"/>
			<path fill="#4F5858" d="M94.477,54.514h0.652h0.135c0.262,0,0.527,0,0.791,0h0.053l0.023-0.053
				c0.227-0.586,0.432-1.176,0.658-1.762c0.23-0.584,0.508-1.152,0.801-1.707c0.197,0,0.395,0,0.594,0h0.303h0.336h0.059
				l0.021-0.055c0.111-0.266,0.213-0.545,0.271-0.832c0.053-0.275,0.066-0.559,0.07-0.836v-0.084h-0.082c-0.215,0-0.428,0-0.645,0
				h-0.031h-0.531c-0.029-0.426-0.088-0.848-0.162-1.268l-0.014-0.066h-0.07c-0.264,0-0.525,0-0.789,0c-0.262,0-0.525,0-0.789,0
				h-0.102l0.021,0.098c0.074,0.41,0.131,0.822,0.156,1.236c-0.186,0-0.367,0-0.555,0h-0.523h-0.117h-0.086v0.082
				c-0.004,0.27-0.02,0.541-0.066,0.803c-0.053,0.279-0.152,0.547-0.26,0.807l-0.049,0.115h0.127h0.451h0.188
				c0.17,0,0.338,0,0.506,0c-0.252,0.479-0.488,0.967-0.693,1.471l-0.074,0.176c-0.225,0.586-0.434,1.176-0.658,1.764l-0.045,0.111
				H94.477z M95.75,52.307c0.252-0.598,0.561-1.168,0.822-1.76l0.049-0.117h-0.123c-0.215,0-0.43,0-0.643,0
				c-0.182,0-0.355,0-0.535,0c0.057-0.227,0.102-0.453,0.131-0.684c0.189,0,0.381,0,0.57,0c0.217,0,0.428,0,0.645,0h0.076
				l0.004-0.08c0.01-0.418-0.012-0.838-0.063-1.252c0.215,0,0.432,0,0.648,0c0.053,0.412,0.078,0.83,0.066,1.248v0.084h0.08
				c0.219,0,0.432,0,0.645,0h0.363h0.184c-0.027,0.23-0.072,0.459-0.135,0.684h-0.049h-0.531c-0.213,0-0.428,0-0.641,0h-0.057
				l-0.018,0.051c-0.266,0.592-0.57,1.162-0.826,1.764c-0.236,0.559-0.436,1.137-0.643,1.707c-0.215,0-0.432,0-0.643,0
				C95.33,53.403,95.523,52.846,95.75,52.307z"/>
			<path fill="#4F5858" d="M72.725,72.63c-1.064-0.57-1.943-1.383-2.631-2.346c-0.213-0.293-0.404-0.598-0.576-0.918
				c-0.789-1.443-1.197-3.113-1.197-4.758c0-1.643,0.408-3.314,1.197-4.76c0.172-0.314,0.363-0.625,0.576-0.914
				c0.688-0.963,1.566-1.775,2.631-2.346c0.213-0.113,0.424-0.217,0.643-0.307l0.125-0.051l-0.098-0.088
				c-0.219-0.193-0.439-0.379-0.67-0.559c-0.539-0.418-1.109-0.795-1.705-1.123l-0.049-0.027l-0.041,0.035
				c-0.303,0.219-0.576,0.467-0.836,0.738c-0.203,0.215-0.393,0.44-0.576,0.678c-0.605,0.795-1.076,1.705-1.432,2.6
				c-0.492,1.25-0.805,2.576-0.963,3.918c-0.088,0.734-0.131,1.475-0.131,2.205c0,0.732,0.043,1.469,0.131,2.203
				c0.158,1.346,0.471,2.674,0.963,3.92c0.355,0.898,0.826,1.805,1.432,2.602c0.184,0.236,0.373,0.461,0.576,0.676
				c0.26,0.273,0.533,0.521,0.836,0.742l0.041,0.031l0.049-0.023c0.596-0.332,1.166-0.709,1.705-1.127
				c0.23-0.18,0.451-0.363,0.67-0.557l0.098-0.09l-0.125-0.049C73.148,72.847,72.938,72.741,72.725,72.63z"/>
			<path fill="#4F5858" d="M67.123,71.522c-0.73-2.266-1.025-4.746-1.025-6.914c0-2.17,0.295-4.648,1.025-6.914
				c0.467-1.469,1.119-2.844,1.984-3.985l0.07-0.092l-0.107-0.039c-0.637-0.23-1.289-0.412-1.947-0.545
				c-0.402-0.084-0.809-0.145-1.215-0.191c-0.307-0.037-0.611-0.059-0.918-0.074l-0.086-0.004v23.692l0.086-0.006
				c0.307-0.018,0.611-0.041,0.918-0.076c0.406-0.047,0.813-0.109,1.215-0.191c0.658-0.133,1.311-0.314,1.947-0.545l0.107-0.037
				l-0.07-0.092C68.242,74.37,67.59,72.991,67.123,71.522z"/>
			<path fill="#4F5858" d="M32.774,77.321L32.774,77.321l-0.119-0.139l-0.002,0.002c-0.289-0.311-0.625-0.564-0.99-0.754
				c-0.438-0.225-0.918-0.354-1.42-0.381c-0.947-0.043-1.883,0.313-2.57,0.959l-0.035,0.033c-0.578,0.561-0.957,1.291-1.086,2.086
				c-0.027,0.154-0.041,0.307-0.049,0.461c-0.043,0.941,0.27,1.885,0.879,2.605l-0.004,0.002l0.086,0.094
				c0.848,0.941,2.121,1.371,3.359,1.094c0.295-0.063,0.578-0.166,0.84-0.303c0.297-0.152,0.57-0.344,0.816-0.574l0.004-0.006
				l0.066-0.059l-0.004-0.004c0.406-0.396,0.709-0.875,0.891-1.398c0.123-0.355,0.197-0.73,0.213-1.113
				c0.025-0.49-0.051-0.982-0.213-1.443C33.286,78.06,33.065,77.667,32.774,77.321z M32.054,81.954l-0.053,0.051
				c-0.104,0.098-0.221,0.189-0.338,0.271c-0.297,0.199-0.627,0.348-0.979,0.422c-0.992,0.221-2.002-0.113-2.689-0.85l0.002-0.002
				l-0.059-0.061l-0.021-0.027c-0.506-0.586-0.766-1.365-0.734-2.139c0.008-0.125,0.02-0.25,0.041-0.373
				c0.107-0.646,0.414-1.244,0.887-1.695l0.039-0.035c0.553-0.516,1.299-0.799,2.055-0.764c0.529,0.023,1.031,0.195,1.459,0.486
				c0.195,0.133,0.375,0.293,0.537,0.473l0.07,0.086h0.002c0.484,0.582,0.73,1.34,0.695,2.096
				C32.937,80.673,32.618,81.409,32.054,81.954z"/>
			<path fill="#4F5858" d="M96.029,73.456l0.016-0.004c0.148-0.004,0.297-0.021,0.443-0.047c0.762-0.137,1.451-0.52,1.975-1.088
				l0.006,0.004l0.018-0.021l0.055-0.072c0.633-0.727,0.957-1.689,0.916-2.648c-0.043-0.885-0.383-1.725-0.971-2.373
				c-0.057-0.066-0.119-0.125-0.18-0.186l-0.037-0.033c-0.686-0.639-1.615-0.988-2.551-0.943c-0.201,0.008-0.398,0.033-0.59,0.076
				c-0.727,0.164-1.383,0.553-1.883,1.117L93.182,67.3l0.004,0.006c-0.404,0.48-0.678,1.051-0.803,1.666
				c-0.258,1.254,0.121,2.566,1.033,3.467l-0.004,0.002l0.074,0.061c0.459,0.434,1.029,0.732,1.643,0.873
				C95.422,73.44,95.723,73.468,96.029,73.456z M93.873,71.907v0.006c-0.73-0.729-1.031-1.789-0.826-2.797
				c0.104-0.49,0.32-0.947,0.641-1.334l0.008,0.01l0.059-0.088c0.367-0.412,0.846-0.715,1.375-0.861
				c0.201-0.055,0.406-0.09,0.621-0.102c0.752-0.033,1.496,0.246,2.053,0.756v0.004l0.047,0.041
				c0.268,0.256,0.482,0.559,0.637,0.889c0.172,0.365,0.271,0.768,0.285,1.18c0.025,0.502-0.076,1.002-0.285,1.453
				c-0.119,0.252-0.271,0.488-0.453,0.699l-0.035,0.039c-0.426,0.477-0.996,0.799-1.627,0.91c-0.115,0.021-0.236,0.035-0.359,0.039
				l-0.035,0.002c-0.289,0.01-0.572-0.025-0.848-0.104c-0.443-0.125-0.852-0.354-1.188-0.67L93.873,71.907z"/>
			<path fill="#4F5858" d="M90.992,75.161l-0.01,0.01c-0.639-0.576-1.477-0.906-2.342-0.908c-0.053,0-0.105,0.002-0.16,0.006h-0.033
				v0.002c-0.139,0.008-0.273,0.023-0.412,0.047c-0.791,0.141-1.492,0.543-2.027,1.143l-0.029,0.035
				c-0.629,0.727-0.953,1.688-0.914,2.646c0.006,0.152,0.025,0.307,0.051,0.461c0.131,0.805,0.52,1.545,1.113,2.107l0.006,0.008
				h0.002c0.557,0.525,1.258,0.855,2.018,0.943c0.129,0.012,0.26,0.02,0.387,0.02c0.051,0,0.1,0,0.15-0.002
				c0.965-0.043,1.857-0.48,2.496-1.209l0.006-0.01c0.512-0.586,0.828-1.313,0.906-2.088c0.016-0.182,0.023-0.371,0.016-0.555
				c-0.039-0.982-0.447-1.908-1.158-2.582L90.992,75.161z M91.52,78.298c-0.064,0.625-0.316,1.213-0.723,1.688l-0.016,0.018
				c-0.518,0.584-1.238,0.941-2.021,0.975c-0.041,0.002-0.08,0.002-0.119,0.002c-0.102,0-0.207-0.006-0.313-0.016
				c-0.605-0.068-1.162-0.326-1.605-0.742l0,0l-0.033-0.025c-0.482-0.459-0.793-1.059-0.9-1.713
				c-0.021-0.123-0.035-0.248-0.041-0.373c-0.035-0.775,0.229-1.555,0.73-2.143l0.035-0.039c0.434-0.48,1-0.807,1.635-0.92
				c0.109-0.016,0.221-0.031,0.332-0.039h0.029c0.043-0.002,0.09-0.002,0.131-0.002c0.717,0,1.416,0.281,1.941,0.773l0.01,0.01
				c0.578,0.549,0.91,1.301,0.943,2.096C91.537,77.999,91.535,78.147,91.52,78.298z"/>
			<path fill="#4F5858" d="M104.646,79.433c-0.014-0.254-0.039-0.506-0.078-0.758c-0.23-1.385-0.889-2.652-1.904-3.625l-0.082-0.082
				l-0.004,0.002c-0.217-0.201-0.453-0.387-0.697-0.555c-0.09-0.059-0.174-0.117-0.262-0.174c-0.303-0.182-0.615-0.336-0.941-0.467
				c0.953-1.219,1.434-2.771,1.367-4.316c-0.074-1.656-0.754-3.223-1.945-4.379l0.002-0.004l-0.088-0.078
				c-0.453-0.426-0.971-0.777-1.527-1.047c-0.895-0.428-1.887-0.641-2.887-0.592c-0.158,0.006-0.314,0.02-0.471,0.039
				c-1.471,0.188-2.809,0.908-3.795,2.029l0,0l-0.07,0.07l0.002,0.004c-0.297,0.348-0.559,0.725-0.775,1.129
				c-0.072,0.137-0.141,0.273-0.203,0.416c-0.254,0.564-0.424,1.164-0.51,1.775c-0.219-0.127-0.424-0.285-0.602-0.471
				c-0.238-0.252-0.416-0.549-0.535-0.871l-0.014-0.049l0.014-0.053c0.021-0.055,0.035-0.107,0.051-0.16
				c0.025-0.107,0.049-0.215,0.068-0.324c0.057-0.365,0.045-0.764-0.119-1.096c-0.059-0.125-0.141-0.242-0.248-0.342l-0.033-0.029
				c-0.477-0.418-1.168-0.328-1.713-0.109c-0.264,0.105-0.518,0.246-0.754,0.404l-3.76-3.561l0.723-8.868
				c0.252-0.188,0.504-0.373,0.758-0.561c1.066-0.785,2.145-1.553,3.252-2.279c0.584-0.383,1.174-0.76,1.775-1.111
				c0.359-0.205,0.721-0.402,1.09-0.59c0.498-0.25,1.031-0.498,1.57-0.646c0.021,0.01,0.047,0.016,0.072,0.02
				c0.725,0.096,2.455,0.338,2.324,1.387c-0.086,0.672-0.752,1.619-1.125,2.189c-0.895,1.357-2.168,3.186-1.197,4.829
				c-0.041,0.068-0.074,0.139-0.104,0.215c-0.119,0.311,0.027,0.678,0.338,0.805c0.031,0.012,0.068,0.021,0.102,0.029
				c0.066,0.623,0.258,1.158,0.494,1.738c0.373,0.898,0.52,1.479,0.283,2.447c-0.039,0.184,0.066,0.377,0.25,0.428
				c0.188,0.043,0.375-0.076,0.412-0.258c0.279-1.145,0.119-1.828-0.316-2.891c-0.248-0.605-0.432-1.133-0.465-1.795
				c0.006-0.016,0.018-0.031,0.021-0.049c0.023-0.066,0.074-0.117,0.131-0.154c0.027,0.771,0.227,1.363,0.518,2.078
				c0.373,0.9,0.52,1.479,0.287,2.449c-0.043,0.182,0.063,0.377,0.246,0.424c0.188,0.049,0.373-0.074,0.418-0.258
				c0.273-1.143,0.117-1.824-0.32-2.889c-0.277-0.676-0.463-1.225-0.471-1.961c0.096-0.006,0.189-0.006,0.287-0.006
				c0.018,0.801,0.215,1.404,0.518,2.143c0.373,0.9,0.521,1.479,0.285,2.449c-0.045,0.182,0.064,0.377,0.25,0.426
				c0.188,0.047,0.367-0.072,0.416-0.258c0.273-1.143,0.119-1.826-0.318-2.889c-0.26-0.631-0.445-1.162-0.469-1.842
				c0.088,0.006,0.176,0.014,0.262,0.021c0.012,0.818,0.213,1.436,0.525,2.189c0.061,0.158,0.121,0.307,0.174,0.451
				c0.236,0.666,0.303,1.197,0.107,1.998c-0.043,0.182,0.063,0.377,0.25,0.424c0.186,0.049,0.369-0.074,0.414-0.258
				c0.277-1.143,0.117-1.824-0.32-2.889c-0.23-0.564-0.4-1.045-0.451-1.627c-0.01-0.08-0.018-0.158-0.018-0.234h0.018l0.244,0.016
				c0.004,0.85,0.207,1.473,0.527,2.254c0.371,0.902,0.52,1.477,0.281,2.449c-0.041,0.184,0.066,0.375,0.252,0.422
				c0.182,0.051,0.369-0.068,0.412-0.256c0.279-1.141,0.119-1.824-0.318-2.889c-0.277-0.672-0.463-1.223-0.469-1.953
				c0.061,0.004,0.119,0.004,0.18,0.004c0.043,0.725,0.24,1.305,0.516,1.973c0.371,0.898,0.518,1.477,0.283,2.447
				c-0.045,0.184,0.061,0.377,0.248,0.424c0.188,0.051,0.371-0.07,0.412-0.254c0.277-1.146,0.121-1.826-0.316-2.893
				c-0.24-0.582-0.422-1.1-0.461-1.732c0.078-0.01,0.16-0.02,0.236-0.035c0.057,0.662,0.254,1.217,0.504,1.83
				c0.373,0.9,0.52,1.479,0.285,2.449c-0.045,0.184,0.066,0.377,0.252,0.424c0.102,0.027,0.209,0,0.289-0.063
				c0.061-0.049,0.105-0.115,0.125-0.193c0.23-0.953,0.156-1.584-0.125-2.387c-0.057-0.16-0.119-0.324-0.193-0.502
				c-0.242-0.588-0.426-1.105-0.465-1.742c0.051-0.021,0.098-0.041,0.146-0.064c0.076,0.584,0.26,1.09,0.484,1.637l0.027,0.061
				c0.35,0.865,0.488,1.438,0.258,2.385c-0.043,0.186,0.063,0.379,0.25,0.426c0.186,0.049,0.371-0.07,0.414-0.254
				c0.277-1.143,0.117-1.826-0.32-2.891c-0.254-0.625-0.443-1.162-0.469-1.846c0.145-0.154,0.258-0.332,0.346-0.525
				c0.141-0.303,0.02-0.672-0.283-0.823c-0.064-0.033-0.127-0.053-0.195-0.059c-0.08-0.01-0.164,0-0.242,0.025
				c-0.045-0.393,0.064-0.785,0.242-1.154c0.203-0.426,0.488-0.824,0.732-1.174c0.375-0.529,0.746-1.066,1.004-1.664
				c0.922-2.117-0.285-3.93-1.736-5.41l-0.023-0.025c-0.039-0.047-0.088-0.082-0.146-0.104c-1.037-0.369-2.119-0.529-3.188-0.357
				c-0.279,0.047-0.553,0.113-0.826,0.205c-1.225,0.414-2.221,1.25-3.035,2.236c-0.633,0.145-1.26,0.426-1.838,0.717
				c-0.264,0.133-0.527,0.273-0.789,0.422l-0.105,0.059c-1.639,0.041-5.299,0.014-5.299,0.014l0.314-3.838H70.586
				c-0.154-0.291-0.297-0.588-0.428-0.889l7.754-7.348l3.213,3.65c0.006,0.008,0.006,0.014,0.014,0.02
				c0.129,0.146,0.344,0.154,0.486,0.023l0.668-0.631l0.645-0.613c0.146-0.129,0.342-0.195,0.539-0.184
				c0.039,0.002,0.078,0.004,0.119,0.016h0.018c0.148,0.037,0.289,0.117,0.393,0.232l0.035,0.041
				c0.127,0.158,0.191,0.361,0.18,0.561v0.016c-0.012,0.203-0.098,0.398-0.244,0.543l-0.363,0.346l-0.928,0.879l-0.004,0.002
				c-0.139,0.131-0.148,0.354-0.023,0.494l3.879,4.406l0.006,0.002c0.123,0.145,0.342,0.156,0.48,0.023l5.391-5.105
				c0.141-0.131,0.148-0.354,0.023-0.498l-3.797-4.307l-0.086-0.1c-0.127-0.143-0.346-0.152-0.482-0.021l-1.471,1.391L86.58,37.75
				c-0.146,0.131-0.344,0.197-0.541,0.188h-0.018c-0.197-0.012-0.377-0.102-0.512-0.248l-0.006-0.008l-0.055-0.066
				c-0.107-0.15-0.164-0.34-0.156-0.525c0.014-0.209,0.094-0.41,0.246-0.555l1.475-1.406c0.139-0.127,0.148-0.352,0.025-0.492
				l-1.342-1.523l-0.012-0.012c-0.135-0.158-0.201-0.367-0.193-0.578c0.012-0.205,0.094-0.404,0.24-0.553l0.078-0.066
				c0.139-0.105,0.307-0.16,0.482-0.158l0.016,0.002c0.199,0.01,0.387,0.096,0.525,0.238l1.357,1.541v0.004
				c0.117,0.135,0.313,0.154,0.449,0.053c0.016-0.008,0.025-0.018,0.037-0.029l1.492-1.41c0.148-0.131,0.342-0.199,0.543-0.189
				c0.035,0,0.074,0.006,0.113,0.016c0.16,0.031,0.299,0.115,0.412,0.234l0.061,0.07c0.111,0.154,0.164,0.342,0.156,0.531v0.018
				c-0.012,0.199-0.094,0.393-0.24,0.533l-0.012,0.014l-1.465,1.387l-0.008,0.006c-0.135,0.129-0.145,0.35-0.02,0.494l3.877,4.402
				l0.004,0.006c0.123,0.145,0.346,0.156,0.486,0.023l5.506-5.223c0.141-0.129,0.152-0.35,0.025-0.494l-3.881-4.406
				c-0.125-0.145-0.346-0.156-0.488-0.021l-0.111,0.107l-1.172,1.109l-0.061,0.045l0.006,0.004c-0.143,0.113-0.326,0.172-0.51,0.164
				h-0.016c-0.191-0.014-0.363-0.1-0.5-0.234h0.004l-0.047-0.051c-0.129-0.154-0.195-0.361-0.188-0.564
				c0.01-0.211,0.094-0.41,0.244-0.559l1.359-1.289l-0.008-0.008c0.082-0.131,0.072-0.309-0.031-0.428l-3.238-3.674l0.59-0.559
				l0.066-0.055l-0.004-0.004c0.143-0.168,0.227-0.381,0.24-0.604c0.01-0.25-0.074-0.494-0.232-0.684h-0.004l-0.775-0.881
				l-0.006-0.01c-0.166-0.184-0.393-0.291-0.635-0.303c-0.23-0.01-0.467,0.07-0.643,0.225l-0.027,0.023L69.16,40.629
				c-0.412-2.273-0.254-4.594,0.357-6.816l0.064-0.219h5.771c0.09,0,0.178-0.039,0.242-0.105c0.777-0.809,1.244-1.736,1.334-2.859
				c0.07-0.883-0.105-1.752-0.291-2.607c-0.105-0.467-0.332-1.342-0.135-1.787c0.035-0.078,0.039-0.164,0.016-0.244
				c-0.055-0.184-0.24-0.293-0.426-0.236c-0.197,0.064-0.377,0.172-0.535,0.311c0,0.004,0,0.004-0.006,0.006
				c-0.146-0.406-0.322-0.801-0.52-1.184c0.254-0.738,0.076-1.449-0.141-2.17c-0.08-0.273-0.273-0.826-0.115-1.088
				c0.088-0.152-0.014-0.314-0.164-0.371c-0.07-0.023-0.146-0.027-0.215-0.01c-0.01,0-0.02,0.006-0.027,0.008
				c-0.086,0.02-0.168,0.049-0.246,0.088c-0.016,0.004-0.025,0.01-0.039,0.016c-0.064-0.135-0.129-0.268-0.199-0.4v-0.314
				c0.164-0.707,0.01-1.381-0.164-2.068c-0.078-0.291-0.25-0.861-0.109-1.141l0.031-0.104c0-0.029-0.006-0.057-0.018-0.086
				c-0.045-0.139-0.203-0.207-0.342-0.17c-0.15,0.041-0.289,0.113-0.414,0.207c-0.021,0.018-0.045,0.035-0.068,0.053
				c-0.018,0.025-0.041,0.041-0.063,0.063l-0.004,0.004l-0.012,0.014c-0.105,0.107-0.193,0.232-0.258,0.369
				c-0.014,0.027-0.025,0.051-0.039,0.082c-0.07,0.164-0.109,0.34-0.113,0.514v0.006v0.041c0,0.061,0.004,0.121,0.021,0.178
				c-0.002,0.004-0.006,0.006-0.01,0.012c-0.529-1.225-1.283-2.334-2.232-3.242c-0.188-0.178-0.375-0.344-0.576-0.508
				c-0.4-0.318-0.824-0.607-1.285-0.861c-0.277-0.154-0.564-0.293-0.857-0.414c-0.061-0.186-0.145-0.359-0.252-0.516
				c-0.293-0.42-0.74-0.727-1.215-0.93c-0.15-0.064-0.305-0.119-0.455-0.16V9.61h1.746V7.217h-1.746V5.405h-2.312v1.813H61.44
				h-0.047V9.61h0.047h1.701v2.375c-0.16,0.047-0.326,0.105-0.484,0.174c-0.479,0.211-0.932,0.529-1.217,0.959
				c-0.092,0.143-0.162,0.295-0.219,0.459c-0.307,0.127-0.605,0.27-0.893,0.43c-0.457,0.254-0.885,0.543-1.283,0.865
				c-1.227,0.99-2.178,2.285-2.811,3.746c-0.002-0.006-0.006-0.008-0.008-0.012c0.006-0.031,0.014-0.064,0.018-0.094l0.004-0.084
				c0-0.371-0.15-0.746-0.412-1.012c-0.031-0.037-0.07-0.072-0.109-0.105c-0.066-0.053-0.135-0.098-0.209-0.137
				c-0.072-0.037-0.146-0.068-0.225-0.092l-0.029-0.014l-0.012,0.004c-0.053-0.012-0.115-0.004-0.168,0.016
				c-0.135,0.057-0.209,0.211-0.139,0.348c0.145,0.279-0.025,0.85-0.104,1.141c-0.176,0.689-0.33,1.361-0.166,2.07v0.314
				c-0.07,0.131-0.137,0.264-0.199,0.398c-0.098-0.049-0.201-0.086-0.309-0.111c-0.15-0.033-0.34,0.021-0.396,0.174
				c-0.027,0.07-0.021,0.145,0.016,0.207c0.154,0.258-0.039,0.814-0.117,1.088c-0.219,0.721-0.395,1.432-0.141,2.17
				c-0.197,0.383-0.371,0.777-0.523,1.184c-0.068-0.061-0.146-0.121-0.225-0.174c-0.096-0.057-0.193-0.102-0.291-0.137l-0.018-0.004
				l-0.088-0.029l-0.002,0.014c-0.055-0.004-0.109,0.008-0.154,0.031c-0.174,0.08-0.248,0.291-0.17,0.463
				c0.197,0.445-0.029,1.32-0.133,1.787c-0.189,0.855-0.361,1.723-0.293,2.6c0.088,1.117,0.549,2.045,1.318,2.852
				c0.064,0.074,0.156,0.121,0.258,0.121h2.627h3.146l0.063,0.217c0.607,2.225,0.768,4.545,0.359,6.818L38.999,21.301
				c-0.176-0.154-0.412-0.24-0.646-0.23c-0.246,0.012-0.471,0.119-0.637,0.303l-0.008,0.006l-0.816,0.93l0.002,0.004
				c-0.133,0.178-0.203,0.406-0.195,0.633c0.012,0.225,0.098,0.439,0.244,0.605l-0.008,0.008l0.066,0.055l0.586,0.555l-3.234,3.676
				c-0.113,0.127-0.113,0.328-0.006,0.463l1.313,1.248l0.031,0.025c0.139,0.146,0.217,0.338,0.223,0.539l0.002,0.006
				c0.01,0.201-0.055,0.406-0.186,0.564l-0.039,0.043c-0.127,0.137-0.301,0.223-0.492,0.238l-0.029,0.004
				c-0.197,0.008-0.391-0.061-0.539-0.188l-1.193-1.133l-0.117-0.109c-0.141-0.135-0.359-0.123-0.484,0.021l-3.879,4.406
				c-0.127,0.145-0.119,0.365,0.021,0.494l5.51,5.223c0.141,0.133,0.357,0.121,0.484-0.027l3.881-4.404
				c0.127-0.145,0.117-0.365-0.023-0.494l-1.461-1.387l-0.029-0.029c-0.139-0.141-0.221-0.328-0.229-0.527v-0.016
				c-0.01-0.188,0.043-0.379,0.156-0.533l0.047-0.055l0.004-0.004l0.006-0.006c0.105-0.121,0.25-0.203,0.41-0.236
				c0.045-0.008,0.08-0.016,0.119-0.016c0.197-0.01,0.387,0.055,0.533,0.182l1.5,1.418c0.01,0.012,0.021,0.021,0.035,0.029
				c0.139,0.102,0.334,0.082,0.447-0.051l1.342-1.523l0.023-0.023c0.135-0.143,0.322-0.229,0.521-0.238l0.018-0.002
				c0.186-0.002,0.373,0.064,0.52,0.189l0.049,0.051c0.141,0.143,0.219,0.336,0.23,0.537c0.008,0.207-0.057,0.412-0.186,0.568
				l-1.361,1.545c-0.123,0.141-0.115,0.365,0.021,0.492l1.469,1.393l0.027,0.025c0.143,0.143,0.221,0.338,0.227,0.541
				c0.008,0.207-0.059,0.414-0.189,0.574l-0.041,0.047c-0.133,0.133-0.309,0.217-0.502,0.229h-0.016
				c-0.197,0.01-0.389-0.057-0.539-0.189l-0.023-0.02l-1.465-1.391c-0.141-0.131-0.359-0.121-0.486,0.021l-3.881,4.41
				c-0.125,0.141-0.115,0.363,0.025,0.494l5.391,5.105c0.135,0.133,0.357,0.121,0.482-0.023l3.879-4.408
				c0.125-0.141,0.119-0.363-0.02-0.494l-1.285-1.217l-0.018-0.014c-0.141-0.139-0.223-0.324-0.236-0.523l-0.002-0.031
				c-0.008-0.199,0.055-0.402,0.176-0.557l0.045-0.053c0.107-0.115,0.248-0.193,0.408-0.225c0.033-0.012,0.074-0.014,0.111-0.016
				c0.203-0.012,0.396,0.055,0.547,0.188l0.641,0.611l0.666,0.629c0.141,0.131,0.361,0.123,0.486-0.021
				c0.008-0.008,0.012-0.014,0.021-0.025l3.209-3.646l7.752,7.348c-0.129,0.301-0.275,0.598-0.428,0.889H45.015l0.311,3.838
				c-0.521,0.016-4.055,0.018-5.301-0.014l-0.104-0.061c-0.258-0.146-0.52-0.287-0.787-0.42c-0.576-0.291-1.209-0.572-1.84-0.717
				c-0.811-0.986-1.809-1.822-3.033-2.236c-0.271-0.092-0.547-0.158-0.824-0.205c-0.59-0.098-1.182-0.092-1.773-0.002
				c-0.479,0.07-0.951,0.195-1.418,0.359c-0.059,0.021-0.109,0.057-0.148,0.107c-1.459,1.482-2.68,3.303-1.756,5.43
				c0.117,0.271,0.258,0.533,0.412,0.783c0.186,0.301,0.389,0.594,0.59,0.883c0.455,0.658,1.074,1.482,0.973,2.328
				c-0.143-0.047-0.299-0.037-0.436,0.033c-0.299,0.15-0.418,0.52-0.279,0.823c0.088,0.193,0.201,0.369,0.344,0.525
				c-0.027,0.684-0.211,1.221-0.467,1.846c-0.441,1.064-0.598,1.748-0.32,2.891c0.041,0.184,0.225,0.303,0.41,0.254
				c0.186-0.047,0.295-0.24,0.252-0.426c-0.234-0.969-0.084-1.547,0.285-2.445c0.223-0.547,0.41-1.053,0.482-1.637
				c0.047,0.023,0.098,0.043,0.146,0.064c-0.037,0.637-0.219,1.154-0.461,1.742c-0.438,1.064-0.598,1.746-0.318,2.889
				c0.045,0.186,0.229,0.305,0.414,0.256c0.184-0.047,0.293-0.24,0.248-0.424c-0.234-0.971-0.084-1.549,0.285-2.449
				c0.256-0.613,0.449-1.168,0.504-1.83c0.084,0.016,0.162,0.025,0.236,0.035c-0.035,0.633-0.219,1.15-0.457,1.732
				c-0.439,1.066-0.598,1.746-0.322,2.893c0.045,0.184,0.225,0.305,0.416,0.254c0.182-0.047,0.291-0.24,0.25-0.424
				c-0.203-0.828-0.123-1.369,0.135-2.072c0.045-0.117,0.094-0.244,0.148-0.375c0.275-0.668,0.473-1.248,0.514-1.973
				c0.063,0,0.119,0,0.18-0.004c-0.006,0.73-0.191,1.281-0.469,1.953c-0.17,0.414-0.297,0.766-0.373,1.113
				c-0.107,0.482-0.113,0.949,0,1.529c0.014,0.082,0.033,0.164,0.053,0.246c0.047,0.188,0.234,0.307,0.416,0.256
				c0.182-0.047,0.291-0.238,0.246-0.422c-0.232-0.973-0.084-1.547,0.287-2.449c0.322-0.781,0.52-1.404,0.523-2.254l0.248-0.016
				h0.014c0,0.082-0.006,0.16-0.014,0.238c-0.053,0.58-0.219,1.061-0.457,1.623c-0.434,1.064-0.592,1.746-0.314,2.889
				c0.043,0.184,0.229,0.307,0.412,0.258c0.188-0.047,0.293-0.242,0.246-0.424c-0.186-0.797-0.123-1.332,0.113-1.996
				c0.053-0.146,0.113-0.293,0.172-0.453c0.313-0.754,0.514-1.371,0.525-2.189c0.086-0.008,0.174-0.016,0.266-0.021
				c-0.027,0.68-0.211,1.211-0.469,1.842c-0.441,1.063-0.596,1.746-0.322,2.889c0.049,0.186,0.23,0.305,0.418,0.258
				c0.182-0.049,0.291-0.244,0.244-0.426c-0.23-0.971-0.082-1.549,0.287-2.449c0.305-0.738,0.502-1.342,0.521-2.143
				c0.096,0,0.189,0.002,0.283,0.01c-0.004,0.732-0.191,1.281-0.469,1.957c-0.438,1.066-0.594,1.746-0.322,2.891
				c0.047,0.186,0.234,0.305,0.42,0.256c0.184-0.047,0.291-0.242,0.246-0.424c-0.234-0.971-0.086-1.549,0.285-2.449
				c0.293-0.715,0.492-1.307,0.52-2.078c0.059,0.037,0.107,0.088,0.129,0.154c0.008,0.018,0.018,0.033,0.025,0.049
				c-0.035,0.662-0.213,1.189-0.467,1.795c-0.438,1.063-0.598,1.746-0.32,2.891c0.045,0.182,0.229,0.301,0.414,0.258
				c0.188-0.051,0.295-0.244,0.25-0.428c-0.236-0.969-0.086-1.549,0.285-2.447c0.238-0.58,0.43-1.115,0.498-1.738
				c0.029-0.008,0.064-0.018,0.096-0.029c0.314-0.127,0.457-0.494,0.34-0.803c-0.029-0.078-0.063-0.148-0.102-0.215
				c0.971-1.645-0.307-3.473-1.199-4.831c-0.375-0.57-1.039-1.518-1.127-2.189c-0.133-1.049,1.602-1.291,2.328-1.389
				c0.023-0.002,0.047-0.008,0.07-0.018c0.537,0.148,1.072,0.396,1.574,0.646c0.365,0.188,0.727,0.385,1.084,0.59
				c0.604,0.352,1.191,0.729,1.777,1.111c0.695,0.459,1.387,0.934,2.064,1.418c0.656,0.467,1.303,0.941,1.943,1.422l0.564,6.938
				l0.156,1.93l-0.156,0.15l-2.508,2.379l-1.092,1.031c-0.238-0.158-0.49-0.299-0.756-0.404c-0.557-0.223-1.256-0.313-1.732,0.129
				l-0.006,0.004l-0.004,0.002c-0.107,0.104-0.191,0.221-0.252,0.348c-0.16,0.332-0.17,0.729-0.115,1.094
				c0.014,0.109,0.039,0.217,0.066,0.324c0.018,0.053,0.035,0.105,0.049,0.16l0.018,0.053l-0.018,0.049
				c-0.117,0.322-0.293,0.619-0.533,0.871c-0.178,0.186-0.379,0.344-0.604,0.471c-0.084-0.611-0.254-1.211-0.506-1.775
				c-0.064-0.143-0.131-0.279-0.205-0.416c-0.23-0.422-0.502-0.818-0.816-1.18l-0.014-0.012v-0.002l-0.014-0.01
				c-0.988-1.121-2.324-1.842-3.793-2.029c-0.156-0.02-0.314-0.033-0.477-0.039c-0.432-0.02-0.869,0.008-1.297,0.082
				c-1.156,0.205-2.246,0.746-3.107,1.555H28.55l-0.096,0.088l0.004,0.002c-1.184,1.152-1.867,2.721-1.938,4.373
				c-0.07,1.545,0.412,3.098,1.369,4.316c-0.328,0.131-0.645,0.285-0.941,0.467c-0.09,0.057-0.18,0.115-0.268,0.174
				c-0.26,0.18-0.51,0.377-0.74,0.594l-0.082,0.074l0.004,0.002c-0.994,0.963-1.643,2.223-1.867,3.59
				c-0.043,0.262-0.07,0.527-0.082,0.795c-0.072,1.66,0.492,3.332,1.596,4.59l0.07,0.084l0.002-0.006
				c1.092,1.205,2.586,1.936,4.211,2.014c0.637,0.029,1.268-0.045,1.871-0.215c0.631-0.174,1.23-0.449,1.773-0.816
				c0.277-0.186,0.543-0.395,0.789-0.625l0.039-0.037c0.502-0.482,0.924-1.043,1.244-1.66c0.041-0.078,0.078-0.154,0.111-0.234
				c1.137,1.137,2.699,1.803,4.301,1.807c0.09,0,0.182-0.002,0.271-0.004c0.344-0.018,0.688-0.066,1.021-0.139
				c0.945-0.207,1.814-0.637,2.549-1.25c0.105-0.084,0.205-0.176,0.309-0.268l0.041-0.039c1.006-0.969,1.664-2.232,1.895-3.613
				c0.043-0.262,0.068-0.527,0.08-0.795c0.07-1.664-0.496-3.334-1.596-4.588l-0.037-0.043c-0.215-0.24-0.447-0.465-0.691-0.668
				c-0.527-0.436-1.125-0.781-1.773-1.02c-0.178-0.066-0.365-0.123-0.547-0.172c-0.025-0.006-0.053-0.014-0.078-0.02
				c0.143-0.217,0.313-0.416,0.514-0.586c0.268-0.229,0.58-0.389,0.924-0.484c0.301,0.139,0.629,0.244,0.961,0.26
				c0.047,0.002,0.088,0.002,0.133,0.002c0.072-0.002,0.146-0.01,0.221-0.021c0.197-0.037,0.385-0.115,0.541-0.242l0.01,0.008
				l0.063-0.07l0.02-0.02c0.457-0.459,0.424-1.184,0.266-1.762c-0.078-0.285-0.191-0.559-0.322-0.82l1.578-1.498l0.475-0.453
				l0.93,11.34c0.043,0.543,0.156,1.072,0.33,1.586c1.086,3.17,4.477,5.691,7.832,6.67c0.979,0.285,1.953,0.438,2.865,0.438h10.815
				h0.344c0.076,0,0.152-0.002,0.232-0.002c0.844-0.023,1.738-0.176,2.631-0.436c3.898-1.135,7.848-4.357,8.168-8.256l0.924-11.34
				l2.057,1.951c-0.104,0.195-0.189,0.402-0.26,0.613c-0.025,0.068-0.045,0.139-0.063,0.207c-0.131,0.473-0.174,1.041,0.063,1.482
				c0.043,0.086,0.1,0.172,0.172,0.246l-0.014,0.014l0.076,0.049l0.016,0.016c0.166,0.148,0.363,0.24,0.582,0.279
				c0.074,0.012,0.148,0.02,0.227,0.021c0.371,0.012,0.752-0.105,1.086-0.262c0.344,0.096,0.658,0.256,0.928,0.484
				c0.199,0.17,0.371,0.369,0.514,0.586c-0.029,0.006-0.055,0.014-0.076,0.02c-0.182,0.049-0.369,0.105-0.547,0.172
				c-0.959,0.352-1.805,0.938-2.477,1.701l-0.039,0.039c-0.162,0.186-0.311,0.383-0.447,0.586c-0.799,1.162-1.197,2.58-1.137,3.992
				l0.004,0.035c0.012,0.254,0.039,0.506,0.078,0.76c0.156,0.945,0.514,1.842,1.055,2.621c0.246,0.361,0.529,0.699,0.854,1.004
				l0.039,0.037c0.801,0.75,1.77,1.273,2.842,1.508c0.338,0.076,0.678,0.121,1.021,0.139c0.092,0.002,0.182,0.004,0.271,0.004
				c1.607-0.004,3.168-0.67,4.299-1.807c0.037,0.08,0.074,0.156,0.111,0.234c0.314,0.6,0.721,1.145,1.205,1.617l-0.012,0.01
				l0.092,0.068c0.246,0.23,0.512,0.441,0.793,0.627c0.986,0.664,2.158,1.035,3.357,1.035c0.092,0,0.184,0,0.279-0.004
				c1.625-0.078,3.117-0.809,4.209-2.006l0.006,0.006l0.063-0.08l0.025-0.027c1.088-1.256,1.658-2.92,1.584-4.574L104.646,79.433z
				 M98.283,55.372c0.033-0.076,0.123-0.115,0.203-0.08l0.004,0.004c0.082,0.039,0.111,0.139,0.076,0.219
				c-0.027,0.055-0.053,0.105-0.08,0.151c-0.631,1.064-2.211,0.967-3.357,0.867l-0.363-0.027c-0.535-0.041-1.088-0.096-1.623-0.063
				c-0.443,0.025-0.986,0.127-1.164,0.59c-0.031,0.082-0.121,0.129-0.201,0.092c-0.082-0.031-0.123-0.129-0.092-0.211
				c0.031-0.096,0.078-0.184,0.139-0.266c0.027-0.014,0.049-0.029,0.066-0.053c0.607-0.605,2.113-0.422,2.895-0.359h0.004h0.014
				l0.326,0.027c1.02,0.088,2.625,0.189,3.096-0.78C98.244,55.45,98.262,55.413,98.283,55.372z M94.516,45.836
				c0.201-0.066,0.406-0.121,0.613-0.158c0.969-0.184,1.951-0.041,2.891,0.283c0.16,0.162,0.316,0.334,0.467,0.506
				c1.035,1.191,1.762,2.6,1.053,4.211c-0.098,0.223-0.217,0.438-0.346,0.646c-0.164,0.271-0.348,0.533-0.527,0.795l-0.18,0.258
				c-0.59,0.857-1.141,1.764-0.861,2.848c-0.332,0.536-1.74,0.434-2.496,0.369l-0.279-0.025h-0.018
				c-0.916-0.074-2.193-0.211-3.023,0.268c-0.408-1.221,0.695-2.774,1.334-3.745c0.453-0.691,1.129-1.658,1.234-2.488
				c0.172-1.383-1.195-1.859-2.299-2.072C92.748,46.786,93.555,46.163,94.516,45.836z M83.182,49.317l0.432,0.01
				c1.236,0.027,2.477,0.023,3.711,0.004c-1.27,0.797-2.5,1.656-3.711,2.541c-0.229,0.166-0.455,0.332-0.682,0.5L83.182,49.317z
				 M36.788,57.124c-0.078,0.037-0.172-0.01-0.201-0.092c-0.182-0.463-0.725-0.564-1.162-0.59c-0.541-0.033-1.092,0.02-1.629,0.063
				l-0.359,0.027c-0.543,0.047-1.182,0.094-1.773,0.02c-0.713-0.094-1.352-0.365-1.664-1.038c-0.039-0.078-0.006-0.18,0.072-0.219
				c0.082-0.039,0.174-0.004,0.209,0.076c0.02,0.041,0.041,0.078,0.059,0.111c0.236,0.481,0.746,0.698,1.324,0.784
				c0.592,0.088,1.256,0.039,1.773-0.004l0.324-0.027h0.01h0.004l0,0c0.783-0.063,2.291-0.246,2.896,0.359
				c0.021,0.023,0.041,0.039,0.068,0.053c0.061,0.082,0.105,0.17,0.141,0.266C36.911,56.995,36.872,57.093,36.788,57.124z
				 M34.19,49.604c0.104,0.83,0.781,1.795,1.234,2.488c0.637,0.971,1.74,2.523,1.332,3.745c-0.832-0.479-2.109-0.342-3.029-0.268
				h-0.016l-0.275,0.025c-0.477,0.04-1.211,0.096-1.773-0.002c-0.332-0.059-0.598-0.168-0.723-0.367
				c0.307-1.193-0.395-2.174-1.039-3.105c-0.326-0.463-0.648-0.928-0.877-1.443c-0.813-1.844,0.258-3.424,1.521-4.715
				c0.363-0.127,0.74-0.227,1.117-0.287c0.592-0.1,1.184-0.105,1.773,0.004c0.203,0.037,0.41,0.092,0.611,0.158
				c0.961,0.326,1.768,0.949,2.438,1.695C35.384,47.745,34.013,48.221,34.19,49.604z M43.763,51.018
				c-0.828-0.584-1.668-1.15-2.525-1.688c0.844,0.012,1.682,0.02,2.525,0.012c0.539-0.004,1.08-0.012,1.619-0.025l0.25,3.055
				C45.015,51.913,44.392,51.459,43.763,51.018z M93.477,28.057l-1.102,1.041l0.002,0.004c-0.252,0.268-0.395,0.619-0.414,0.986
				v0.01c-0.012,0.385,0.119,0.771,0.369,1.066l0.059,0.076l0.006-0.002c0.26,0.262,0.598,0.418,0.967,0.436
				c0.375,0.02,0.748-0.119,1.027-0.369l0.025-0.025l0.713-0.668l0.322-0.311l3.426,3.887l-5.008,4.742l-3.426-3.887l1.27-1.199
				v-0.006c0.238-0.244,0.383-0.566,0.418-0.906h0.002l0.004-0.094c0.02-0.383-0.107-0.768-0.354-1.063l-0.057-0.061
				c-0.201-0.219-0.469-0.373-0.762-0.436c-0.074-0.012-0.145-0.021-0.217-0.023c-0.383-0.021-0.754,0.113-1.037,0.365l-1.07,1.014
				l-0.174,0.164l-1.162-1.324l-0.006,0.004c-0.252-0.26-0.59-0.418-0.957-0.434c-0.01,0-0.02,0-0.027,0
				c-0.365-0.01-0.725,0.125-0.998,0.367l-0.09,0.082l0.006,0.002c-0.26,0.27-0.404,0.625-0.422,0.998
				c-0.016,0.369,0.102,0.742,0.334,1.033v0.004l1.16,1.318l-1.277,1.211v0.002c-0.25,0.268-0.398,0.621-0.412,0.99l-0.006,0.012
				c-0.01,0.379,0.113,0.764,0.359,1.057l0.047,0.053c0.258,0.279,0.611,0.447,0.992,0.469c0.377,0.014,0.75-0.119,1.027-0.369
				l0.031-0.027l1.215-1.15l0.359,0.412l3.059,3.475l-4.885,4.629l-3.422-3.887l0.221-0.205l0.871-0.828v-0.004
				c0.258-0.268,0.404-0.625,0.42-0.998c0.014-0.373-0.105-0.744-0.338-1.037l0.004-0.002l-0.068-0.076
				c-0.207-0.223-0.473-0.379-0.771-0.441c-0.039-0.006-0.08-0.012-0.117-0.02c-0.035-0.004-0.068-0.006-0.102-0.006
				c-0.371-0.02-0.732,0.107-1.008,0.346l-0.002-0.004l-0.209,0.201l-0.877,0.83l-2.996-3.404l12.063-11.426L93.477,28.057z
				 M90.021,21.825c0.045-0.035,0.102-0.053,0.156-0.053c0.061,0.004,0.117,0.027,0.16,0.07l0.793,0.902
				c0.033,0.047,0.055,0.107,0.051,0.17c-0.004,0.061-0.023,0.121-0.064,0.166L68.207,44.78h-2.42L90.021,21.825z M69.814,44.78
				h-0.297h-0.299l0.299-0.279l0.115-0.109C69.689,44.52,69.754,44.649,69.814,44.78z M65.229,44.352l-0.449,0.428h-0.479h-0.514
				l-0.452-0.428c0.903-3.293,0.569-6.553-0.678-9.645c-0.15-0.375-0.314-0.744-0.494-1.113H66.4
				c-0.176,0.369-0.342,0.742-0.492,1.115C64.656,37.799,64.328,41.059,65.229,44.352z M59.737,33.594h1.703h0.029
				c0.504,1.018,0.904,2.063,1.188,3.133c0.615,2.301,0.695,4.695,0.107,7.086l-0.107-0.104l-1.217-1.146l-1.453-1.379
				C60.509,38.7,60.386,36.043,59.737,33.594z M65.908,36.727c0.285-1.066,0.686-2.115,1.188-3.133h0.027h1.705
				c-0.648,2.449-0.771,5.105-0.254,7.59l-1.451,1.377l-1.215,1.148l-0.109,0.104C65.209,41.424,65.291,39.03,65.908,36.727z
				 M72.137,20.549c0.01-0.006,0.018-0.008,0.025-0.018c0.242-0.207,0.305-0.6,0.305-0.908v-0.031v-0.02
				c0-0.141,0.02-0.295,0.092-0.418c0.045-0.064,0.104-0.123,0.166-0.174c0.035-0.029,0.07-0.057,0.107-0.078
				c0.105-0.07,0.145-0.203,0.084-0.316v-0.006l-0.006-0.014c-0.006-0.008,0.002,0.004-0.006-0.01L72.9,18.549l-0.006-0.016
				c-0.01-0.031-0.02-0.07-0.02-0.105v-0.016c0.002-0.123,0.029-0.246,0.076-0.361c0.006-0.018,0.016-0.035,0.027-0.053
				c0.01-0.025,0.018-0.045,0.033-0.066c0.029,0.256,0.098,0.514,0.162,0.762c0.162,0.629,0.314,1.264,0.143,1.908h-0.592h-0.662
				C72.09,20.586,72.113,20.569,72.137,20.549z M62.079,8.907V7.918h1.747V6.11h0.943v1.809h1.748v0.988H64.77v2.949
				c-0.158-0.016-0.313-0.023-0.469-0.025h-0.004c-0.156,0-0.314,0.01-0.471,0.025V8.907H62.079z M62.657,12.926
				c0.498-0.275,1.118-0.391,1.64-0.391h0.004c0.512,0,1.121,0.111,1.607,0.375c0.178,0.094,0.336,0.207,0.477,0.346
				c-0.16-0.043-0.316-0.08-0.477-0.113c-0.529-0.105-1.068-0.166-1.607-0.166h-0.018c-0.547,0-1.095,0.057-1.626,0.166
				c-0.146,0.031-0.297,0.064-0.441,0.102C62.343,13.118,62.495,13.014,62.657,12.926z M59.046,15.793
				c0.703-0.65,1.512-1.184,2.395-1.549c0.391-0.16,0.797-0.293,1.217-0.383c0.52-0.119,1.065-0.18,1.626-0.18h0.018
				c0.557,0,1.09,0.063,1.607,0.18c0.416,0.09,0.822,0.223,1.215,0.383c0.881,0.365,1.693,0.898,2.395,1.549
				c0.201,0.186,0.391,0.381,0.576,0.586c0.777,0.873,1.4,1.91,1.816,3.037c-0.002,0.051-0.002,0.102-0.002,0.156v0.078
				c0,0.145-0.021,0.396-0.119,0.496c-0.129-0.115-0.15-0.414-0.146-0.574l0,0c0-0.314-0.117-0.609-0.326-0.846
				c-0.033-0.039-0.07-0.078-0.105-0.109c0.004-0.037,0.012-0.074,0.016-0.105h0.002v-0.084c0-0.361-0.248-0.592-0.5-0.811
				c-0.064-0.055-0.262-0.219-0.268-0.303c-0.002-0.145-0.133-0.246-0.268-0.25c-0.035-0.002-0.066,0.004-0.1,0.016
				c-0.104,0.031-0.188,0.119-0.193,0.234c-0.002,0.084-0.199,0.248-0.264,0.303c-0.043,0.037-0.08,0.074-0.119,0.109
				c-0.201,0.188-0.381,0.398-0.381,0.701c0,0.063,0.004,0.127,0.023,0.189c-0.084,0.07-0.156,0.154-0.217,0.248
				c-0.02,0.029-0.039,0.059-0.055,0.088c-0.105,0.188-0.162,0.396-0.162,0.607v0.049c0.002,0.203-0.063,0.416-0.258,0.508v0.002
				c-0.061,0.025-0.123,0.041-0.182,0.041c-0.061,0-0.123-0.014-0.18-0.039c-0.188-0.088-0.258-0.289-0.262-0.484
				c0.004-0.021,0.004-0.045,0.004-0.068c0-0.311-0.119-0.605-0.322-0.842c-0.035-0.039-0.07-0.078-0.109-0.109
				c0.014-0.063,0.02-0.125,0.02-0.188v-0.002c0-0.271-0.139-0.467-0.314-0.641c-0.063-0.057-0.123-0.113-0.188-0.17
				c-0.063-0.055-0.266-0.219-0.266-0.303c-0.006-0.145-0.131-0.246-0.271-0.25c-0.145-0.002-0.285,0.1-0.285,0.25
				c-0.006,0.064-0.121,0.18-0.205,0.252l-0.061,0.051c-0.254,0.219-0.506,0.449-0.506,0.811c0,0.063,0.006,0.127,0.023,0.189
				c-0.082,0.07-0.156,0.154-0.213,0.248c-0.021,0.029-0.043,0.059-0.057,0.088c-0.105,0.188-0.162,0.393-0.162,0.605l-0.008,0.053
				l0.008,0.008c-0.008,0.223-0.133,0.391-0.342,0.473c-0.096,0.031-0.189,0.049-0.287,0.051l-0.004-0.002
				c-0.098,0.002-0.195-0.014-0.287-0.049c-0.238-0.082-0.383-0.268-0.383-0.521c0-0.313-0.118-0.607-0.323-0.844
				c-0.033-0.039-0.072-0.078-0.109-0.109c0.008-0.037,0.014-0.074,0.02-0.105h0.004v-0.084c0-0.361-0.254-0.592-0.506-0.811
				l-0.059-0.051c-0.084-0.072-0.201-0.186-0.205-0.25c-0.006-0.146-0.131-0.248-0.27-0.252c-0.145-0.002-0.283,0.1-0.291,0.25
				c0,0.084-0.201,0.248-0.266,0.303c-0.059,0.057-0.125,0.113-0.186,0.17c-0.17,0.174-0.314,0.369-0.314,0.641
				c0,0.063,0.008,0.127,0.025,0.189c-0.084,0.072-0.158,0.154-0.221,0.248c-0.018,0.029-0.035,0.059-0.057,0.088
				c-0.105,0.189-0.156,0.398-0.156,0.619v0.035l0.002,0.029c-0.002,0.193-0.074,0.398-0.266,0.486
				c-0.055,0.023-0.115,0.037-0.176,0.037s-0.121-0.016-0.172-0.039c-0.201-0.094-0.271-0.311-0.268-0.514v-0.006V19.6v-0.021
				v-0.006c0-0.314-0.119-0.609-0.326-0.846c-0.033-0.039-0.068-0.078-0.107-0.109c0.01-0.037,0.014-0.074,0.018-0.105h0.006v-0.084
				c0-0.303-0.176-0.514-0.383-0.701c-0.039-0.035-0.082-0.072-0.119-0.109c-0.064-0.055-0.262-0.219-0.266-0.301
				c-0.006-0.146-0.133-0.248-0.273-0.252c-0.145-0.002-0.283,0.1-0.287,0.25c-0.002,0.084-0.203,0.248-0.268,0.303
				c-0.246,0.219-0.5,0.449-0.5,0.811c0,0.063,0.008,0.127,0.02,0.189c-0.078,0.07-0.15,0.154-0.213,0.248
				c-0.02,0.029-0.039,0.059-0.055,0.088c-0.105,0.189-0.166,0.398-0.166,0.617v0.021c0,0.156-0.02,0.439-0.143,0.553
				c-0.104-0.107-0.121-0.385-0.121-0.518v-0.025v-0.008c0-0.008,0-0.016,0-0.021c0-0.055,0-0.105-0.004-0.156
				C57.167,18.028,57.993,16.776,59.046,15.793z M69.287,19.592v-0.043c0.002-0.125,0.035-0.248,0.098-0.359
				c0.012-0.02,0.023-0.037,0.035-0.055c0.027-0.045,0.063-0.084,0.098-0.121c0.039-0.043,0.084-0.082,0.133-0.111
				c0.105-0.072,0.146-0.211,0.086-0.328l-0.008-0.01c0-0.002-0.004-0.006-0.004-0.008l-0.006-0.01l-0.004-0.014
				c-0.014-0.031-0.021-0.068-0.021-0.105c0-0.162,0.223-0.338,0.328-0.434l0.072-0.063c0.029-0.027,0.063-0.057,0.086-0.084
				c0.057,0.049,0.107,0.098,0.166,0.146c0.105,0.096,0.326,0.271,0.326,0.434v0.002c0,0.025-0.004,0.049-0.012,0.074l-0.002,0.018
				l0,0c-0.01,0.02-0.016,0.041-0.027,0.057c-0.068,0.121-0.02,0.26,0.094,0.332c0.025,0.02,0.053,0.037,0.078,0.059
				c0.029,0.027,0.053,0.053,0.08,0.08c0.121,0.146,0.197,0.326,0.197,0.521c-0.002,0.33,0.076,0.752,0.348,0.971
				c0.027,0.021,0.061,0.041,0.088,0.061h-2.844c0.01-0.006,0.027-0.014,0.041-0.02l0.014-0.006
				c0.381-0.186,0.563-0.563,0.563-0.977L69.287,19.592z M65.951,18.598v-0.023l-0.018-0.012v-0.004l-0.008-0.01v-0.008
				l-0.004-0.008c-0.006-0.014-0.012-0.037-0.014-0.059c-0.002-0.014-0.006-0.029-0.006-0.047c0-0.014,0.004-0.027,0.006-0.041
				c0.031-0.148,0.219-0.305,0.324-0.393c0.053-0.049,0.105-0.098,0.16-0.146c0.049,0.049,0.105,0.098,0.158,0.146
				c0.111,0.096,0.328,0.271,0.328,0.434v0.021c0,0.016-0.006,0.035-0.01,0.055l-0.008,0.018v0.002
				c-0.004,0.018-0.014,0.039-0.021,0.055c-0.066,0.121-0.021,0.26,0.094,0.332c0.027,0.02,0.053,0.037,0.076,0.061
				c0.029,0.025,0.055,0.051,0.08,0.078c0.008,0.012,0.021,0.025,0.033,0.037c0.105,0.139,0.162,0.307,0.162,0.484
				c0,0.014,0,0.025,0,0.041c-0.004,0.016,0,0.018,0,0.033c0,0.406,0.193,0.766,0.578,0.941c0.01,0.006,0.023,0.012,0.035,0.016
				h-3.199c0.035-0.01,0.07-0.023,0.104-0.035c0.439-0.17,0.705-0.527,0.691-0.998v-0.002c0-0.133,0.033-0.264,0.1-0.377
				c0.008-0.02,0.018-0.035,0.033-0.055c0.061-0.092,0.143-0.172,0.232-0.232c0.018-0.014,0.035-0.027,0.049-0.041
				C65.975,18.79,65.994,18.688,65.951,18.598z M61.274,19.569c0-0.135,0.033-0.262,0.102-0.379c0.012-0.02,0.021-0.037,0.031-0.055
				c0.016-0.018,0.025-0.035,0.033-0.049c0.061-0.072,0.127-0.133,0.199-0.184c0.109-0.074,0.148-0.215,0.086-0.328l-0.006-0.004
				c-0.004-0.004-0.006-0.008-0.008-0.016l-0.004-0.006c0-0.006,0-0.008-0.004-0.016c-0.014-0.031-0.018-0.068-0.018-0.105
				c0-0.162,0.217-0.338,0.328-0.434c0.049-0.049,0.107-0.098,0.156-0.146c0.055,0.049,0.109,0.098,0.16,0.146
				c0.105,0.088,0.291,0.242,0.326,0.393c0.004,0.014,0.004,0.027,0.004,0.041v0.01v0.002c0,0.014-0.004,0.025-0.004,0.043v0.006
				l-0.014,0.033v0.01c-0.006,0.012-0.014,0.031-0.021,0.045c-0.053,0.1-0.035,0.209,0.035,0.285
				c0.014,0.016,0.035,0.033,0.055,0.047c0.029,0.016,0.057,0.039,0.078,0.061c0.029,0.027,0.059,0.053,0.078,0.08
				c0.127,0.146,0.201,0.326,0.201,0.523c0.004,0.482,0.291,0.842,0.741,1.002c0.027,0.008,0.055,0.018,0.084,0.027h-3.229
				c0.01-0.004,0.021-0.01,0.035-0.016c0.387-0.176,0.578-0.545,0.578-0.959v-0.01V19.59L61.274,19.569z M57.929,18.575
				c-0.01-0.02,0.004,0.002-0.01-0.018v-0.006c0-0.008-0.006-0.01-0.008-0.012c-0.014-0.037-0.018-0.074-0.018-0.111
				c0-0.162,0.217-0.338,0.33-0.434c0.053-0.049,0.105-0.098,0.154-0.146c0.055,0.049,0.109,0.098,0.162,0.146
				c0.109,0.096,0.33,0.271,0.33,0.434v0.016l0,0c0,0.02-0.008,0.039-0.012,0.059l-0.008,0.029c-0.004,0.012-0.016,0.031-0.02,0.045
				c-0.07,0.119-0.023,0.26,0.09,0.328c0.027,0.02,0.053,0.043,0.082,0.064c0.01,0.016,0.031,0.031,0.043,0.043
				s0.02,0.025,0.035,0.037c0.125,0.145,0.195,0.324,0.197,0.52l-0.002,0.02v0.02c-0.002,0.414,0.184,0.795,0.576,0.975
				c0.014,0.006,0.029,0.014,0.043,0.02H57.05c0.025-0.02,0.057-0.039,0.088-0.061c0.264-0.217,0.346-0.623,0.346-0.949l0.002-0.057
				c0-0.121,0.035-0.24,0.094-0.346c0.016-0.02,0.023-0.037,0.039-0.055c0.059-0.092,0.139-0.172,0.234-0.232
				C57.958,18.829,57.997,18.688,57.929,18.575z M55.386,18.694c0.066-0.248,0.139-0.506,0.168-0.764
				c0.088,0.15,0.135,0.324,0.135,0.498v0.018c-0.004,0.018-0.004,0.037-0.008,0.057l-0.01,0.02v0.012
				c-0.008,0.014-0.014,0.029-0.021,0.045c-0.064,0.121-0.021,0.26,0.09,0.332c0.033,0.02,0.066,0.043,0.098,0.07
				c0.064,0.049,0.125,0.105,0.166,0.174c0.074,0.123,0.096,0.273,0.096,0.418c0,0.012,0.002,0,0.002,0.008l-0.002,0.037v0.002
				c-0.006,0.314,0.064,0.723,0.326,0.93c0.025,0.02,0.051,0.037,0.076,0.053h-1.25C55.077,19.958,55.226,19.323,55.386,18.694z
				 M55.411,21.055h17.743c0.143,0.25,0.275,0.506,0.389,0.77c-0.154,0.221-0.248,0.482-0.248,0.756v0.082h0.006
				c0,0.029,0.004,0.055,0.016,0.082c-0.111,0.082-0.213,0.17-0.293,0.279c-0.096,0.137-0.148,0.287-0.174,0.447
				c-0.025-0.117-0.064-0.23-0.125-0.332c-0.012-0.021-0.023-0.041-0.039-0.064l-0.01-0.012c-0.014-0.023-0.033-0.047-0.053-0.072
				c-0.064-0.088-0.145-0.168-0.23-0.238c0.012-0.055,0.02-0.117,0.02-0.172c0-0.371-0.305-0.602-0.572-0.805
				c-0.055-0.041-0.285-0.209-0.291-0.277c-0.006-0.17-0.182-0.264-0.338-0.264c-0.143,0.004-0.309,0.104-0.313,0.266
				c-0.008,0.07-0.234,0.234-0.293,0.275c-0.195,0.148-0.412,0.313-0.512,0.533c-0.037,0.082-0.061,0.172-0.061,0.271v0.082h0.008
				c0,0.029,0.006,0.059,0.016,0.09c-0.039,0.031-0.076,0.064-0.115,0.102l-0.012,0.012c-0.217,0.219-0.354,0.5-0.357,0.813v0.008
				c0,0.125-0.012,0.318-0.055,0.477c-0.016,0.057-0.035,0.113-0.059,0.152c-0.096-0.158-0.117-0.426-0.123-0.592v-0.115l0,0
				c-0.016-0.191-0.08-0.369-0.186-0.529c-0.018-0.029-0.039-0.059-0.061-0.088c-0.066-0.088-0.146-0.168-0.234-0.238
				c0.014-0.055,0.021-0.117,0.021-0.172c0-0.371-0.305-0.602-0.572-0.805c-0.055-0.041-0.289-0.209-0.289-0.277
				c-0.012-0.17-0.184-0.264-0.336-0.264c-0.15,0.004-0.314,0.104-0.314,0.266c-0.008,0.057-0.158,0.174-0.242,0.24l-0.053,0.035
				c-0.266,0.203-0.57,0.434-0.57,0.805v0.082h0.004c0.006,0.029,0.01,0.059,0.018,0.09c-0.039,0.031-0.08,0.066-0.115,0.102
				l-0.014,0.012c-0.217,0.223-0.357,0.508-0.357,0.822l0.004,0.037c-0.004,0.139-0.014,0.322-0.057,0.475
				c-0.039-0.152-0.049-0.336-0.049-0.477v-0.115h-0.008c-0.004-0.053-0.01-0.102-0.018-0.146c-0.031-0.137-0.086-0.266-0.162-0.383
				c-0.02-0.029-0.039-0.059-0.059-0.088c-0.07-0.088-0.148-0.168-0.238-0.238c0.016-0.055,0.023-0.117,0.023-0.172
				c0-0.371-0.307-0.602-0.572-0.805c-0.057-0.041-0.291-0.209-0.291-0.277c-0.006-0.16-0.162-0.252-0.309-0.264h-0.027
				c-0.148,0.004-0.311,0.1-0.318,0.264c-0.002,0.068-0.232,0.236-0.291,0.277c-0.265,0.203-0.573,0.434-0.573,0.805v0.012
				l0.004,0.004c0,0.053,0.004,0.105,0.021,0.156c-0.043,0.031-0.08,0.066-0.115,0.102c-0.006,0.004-0.008,0.008-0.014,0.012
				c-0.164,0.166-0.281,0.369-0.33,0.592c-0.02,0.076-0.025,0.152-0.025,0.23v0.037c0,0.139-0.012,0.322-0.053,0.475
				c-0.041-0.152-0.053-0.336-0.053-0.477v-0.115h-0.006c-0.014-0.191-0.078-0.369-0.182-0.529
				c-0.018-0.029-0.039-0.059-0.063-0.088c-0.066-0.088-0.146-0.168-0.234-0.238c0.016-0.055,0.021-0.117,0.021-0.172
				c0-0.371-0.305-0.602-0.572-0.805l-0.051-0.037c-0.084-0.066-0.238-0.186-0.238-0.24c-0.006-0.17-0.182-0.264-0.336-0.264
				c-0.148,0.004-0.309,0.1-0.318,0.264c-0.004,0.068-0.234,0.236-0.289,0.277c-0.266,0.203-0.572,0.434-0.572,0.805v0.082h0.006
				c0,0.029,0.008,0.059,0.018,0.09c-0.039,0.031-0.078,0.066-0.119,0.104c-0.004,0.002-0.006,0.006-0.008,0.01
				c-0.223,0.223-0.357,0.508-0.357,0.822l0.002,0.037c-0.002,0.162-0.027,0.438-0.117,0.594c-0.029-0.043-0.049-0.098-0.064-0.156
				c-0.041-0.146-0.053-0.322-0.059-0.439v-0.115l0,0c-0.018-0.191-0.078-0.369-0.184-0.529c-0.021-0.029-0.043-0.059-0.063-0.088
				c-0.066-0.088-0.146-0.168-0.232-0.238c0.014-0.055,0.021-0.117,0.021-0.172c0-0.371-0.307-0.602-0.572-0.805
				c-0.057-0.041-0.287-0.209-0.291-0.277c-0.01-0.17-0.182-0.264-0.336-0.264c-0.148,0.004-0.309,0.1-0.316,0.264
				c-0.004,0.068-0.234,0.236-0.291,0.277c-0.266,0.203-0.572,0.434-0.572,0.805v0.012v0.004c0.002,0.053,0.012,0.105,0.02,0.158
				c-0.039,0.029-0.078,0.063-0.111,0.1c-0.006,0.004-0.01,0.008-0.016,0.012c-0.08,0.084-0.146,0.176-0.207,0.273
				c-0.057,0.102-0.098,0.215-0.121,0.328c-0.025-0.162-0.08-0.307-0.178-0.443c-0.078-0.109-0.182-0.201-0.287-0.279
				c0.014-0.055,0.018-0.109,0.018-0.164v-0.084l0,0c-0.01-0.092-0.023-0.184-0.053-0.271c-0.021-0.072-0.049-0.145-0.084-0.215
				c-0.029-0.066-0.068-0.127-0.107-0.188C55.138,21.561,55.269,21.305,55.411,21.055z M54.302,22.846
				c0.07-0.232,0.148-0.469,0.18-0.711c0.018,0.025,0.033,0.053,0.047,0.082c0.023,0.043,0.045,0.09,0.053,0.137
				c0.021,0.064,0.029,0.127,0.035,0.189v0.037c0,0.029-0.006,0.059-0.014,0.086l-0.006,0.006l-0.008,0.018l-0.014,0.021
				c-0.082,0.125-0.023,0.275,0.098,0.348c0.109,0.064,0.229,0.141,0.301,0.242c0.082,0.113,0.104,0.254,0.104,0.387v0.084h0.002
				c0.006,0.299,0.053,0.723,0.232,0.947c0.1,0.129,0.236,0.197,0.398,0.197c0.045,0,0.088-0.002,0.127-0.014
				c0.109-0.027,0.201-0.092,0.273-0.184c0.18-0.225,0.225-0.648,0.23-0.947l0,0v-0.084c0-0.182,0.082-0.348,0.209-0.477
				c0.004-0.002,0.004-0.006,0.012-0.01c0.023-0.023,0.049-0.049,0.076-0.068l0.008-0.008c0.031-0.021,0.057-0.041,0.092-0.059
				h-0.008c0.135-0.068,0.203-0.221,0.113-0.355c-0.008-0.014-0.018-0.033-0.023-0.053l-0.004-0.01
				c-0.008-0.016-0.01-0.033-0.012-0.049l0.002-0.02c0-0.146,0.254-0.324,0.357-0.406c0.061-0.043,0.121-0.088,0.178-0.137
				c0.057,0.049,0.117,0.094,0.176,0.137c0.102,0.082,0.363,0.26,0.363,0.406c0,0.029-0.01,0.059-0.021,0.086l-0.006,0.023
				l-0.02,0.021c-0.084,0.125-0.023,0.275,0.102,0.348c0.098,0.059,0.188,0.133,0.258,0.225c0.012,0.014,0.023,0.029,0.035,0.051
				c0.064,0.096,0.102,0.207,0.107,0.322v0.068c0.006,0.344,0.084,0.795,0.354,1.035c0.098,0.088,0.225,0.143,0.357,0.156
				c0.02,0,0.041,0,0.064,0c0.156,0,0.299-0.055,0.418-0.156c0.26-0.229,0.338-0.652,0.35-0.988h0.002v-0.084
				c0-0.182,0.078-0.346,0.207-0.477c0-0.002,0.006-0.006,0.012-0.012c0.027-0.027,0.053-0.051,0.084-0.076
				c0.027-0.021,0.057-0.041,0.084-0.059c0.133-0.066,0.199-0.219,0.115-0.354c-0.012-0.014-0.02-0.033-0.029-0.053v-0.01
				c-0.008-0.018-0.01-0.035-0.014-0.053v-0.016c0-0.146,0.258-0.324,0.361-0.406c0.059-0.043,0.117-0.088,0.174-0.137
				c0.061,0.049,0.117,0.094,0.18,0.137c0.104,0.082,0.355,0.26,0.355,0.406c0,0.033-0.006,0.066-0.016,0.096l-0.012,0.021
				l-0.008,0.014c-0.082,0.117-0.035,0.252,0.066,0.33c0.012,0.008,0.02,0.012,0.029,0.018c0.1,0.059,0.186,0.133,0.256,0.225
				c0.014,0.014,0.025,0.029,0.039,0.051c0.063,0.096,0.102,0.207,0.107,0.322v0.068c0.006,0.322,0.066,0.779,0.299,1.018
				c0.109,0.115,0.252,0.174,0.408,0.174c0.025,0,0.053,0,0.078-0.002c0.127-0.018,0.236-0.076,0.33-0.172
				c0.225-0.227,0.287-0.65,0.295-0.971h0.004v-0.084c0-0.182,0.078-0.346,0.205-0.477c0.002,0,0.004-0.004,0.012-0.012
				c0.028-0.027,0.058-0.051,0.089-0.076c0.027-0.021,0.055-0.039,0.082-0.059c0.131-0.066,0.201-0.219,0.113-0.354
				c-0.012-0.014-0.02-0.033-0.027-0.053v-0.008c-0.008-0.018-0.012-0.037-0.012-0.055v-0.016c0-0.146,0.252-0.324,0.357-0.406
				c0.061-0.043,0.119-0.088,0.178-0.137l0.018,0.016c0.051,0.039,0.104,0.082,0.156,0.121c0.104,0.082,0.361,0.26,0.361,0.406
				c0,0.033-0.006,0.063-0.021,0.096l-0.008,0.021l-0.01,0.012c-0.084,0.127-0.027,0.275,0.096,0.35
				c0.102,0.059,0.189,0.133,0.258,0.225c0.014,0.014,0.023,0.029,0.037,0.051c0.068,0.102,0.107,0.217,0.107,0.342v0.01v0.002
				c0,0.012,0,0.02,0.006,0.027c0,0.32,0.055,0.787,0.295,1.027c0.09,0.094,0.205,0.152,0.33,0.172
				c0.025,0.002,0.053,0.002,0.078,0.002c0.16,0,0.299-0.059,0.406-0.174c0.236-0.238,0.297-0.695,0.299-1.018v-0.037
				c0-0.182,0.082-0.348,0.207-0.479l0.01-0.008c0.027-0.025,0.057-0.053,0.09-0.078c0.027-0.021,0.053-0.041,0.084-0.059
				l0.031-0.012l0.002-0.008l0.008-0.004c0.105-0.078,0.145-0.213,0.07-0.326c-0.012-0.018-0.02-0.039-0.029-0.057v-0.01
				c-0.008-0.016-0.01-0.035-0.012-0.049l0.002-0.02c0-0.146,0.254-0.324,0.355-0.406c0.063-0.043,0.123-0.088,0.18-0.137
				c0.053,0.049,0.115,0.094,0.174,0.137c0.105,0.082,0.363,0.26,0.363,0.406c0,0.029-0.01,0.059-0.02,0.088l-0.016,0.029
				l-0.008,0.012c-0.084,0.127-0.027,0.275,0.098,0.35c0.1,0.059,0.191,0.133,0.256,0.225c0.014,0.016,0.027,0.033,0.039,0.051
				c0.063,0.096,0.102,0.205,0.105,0.322v0.115h0.004c0.014,0.316,0.08,0.703,0.299,0.939c0.123,0.133,0.287,0.205,0.475,0.205
				c0.018,0,0.039,0,0.059,0c0.133-0.014,0.256-0.068,0.359-0.156c0.094-0.082,0.164-0.193,0.217-0.313
				c0.1-0.236,0.129-0.516,0.129-0.748v-0.006c0-0.188,0.084-0.354,0.211-0.484l0.012-0.008c0.023-0.023,0.049-0.049,0.072-0.068
				l0.01-0.008c0.031-0.021,0.059-0.043,0.09-0.061l0.035-0.016v-0.004c0.105-0.08,0.15-0.213,0.076-0.33
				c-0.008-0.018-0.02-0.039-0.029-0.059l0,0v-0.002c-0.006-0.021-0.01-0.039-0.012-0.055v-0.02c0-0.146,0.258-0.324,0.363-0.406
				c0.059-0.043,0.113-0.088,0.172-0.137c0.057,0.049,0.117,0.094,0.176,0.137c0.105,0.082,0.359,0.26,0.359,0.406
				c0,0.029-0.002,0.059-0.018,0.088l-0.012,0.029l0,0l-0.008,0.012c-0.088,0.127-0.025,0.275,0.098,0.35
				c0.098,0.059,0.188,0.133,0.254,0.225c0.012,0.014,0.025,0.027,0.035,0.043v0.004c0.066,0.1,0.105,0.209,0.113,0.326v0.115l0,0
				c0.006,0.299,0.055,0.723,0.234,0.947c0.072,0.092,0.164,0.156,0.27,0.184c0.041,0.012,0.086,0.014,0.129,0.014
				c0.164,0,0.301-0.068,0.396-0.197c0.18-0.225,0.227-0.648,0.232-0.947h0.006v-0.084c0-0.133,0.018-0.273,0.102-0.387
				c0.07-0.102,0.189-0.178,0.297-0.242c0.125-0.068,0.186-0.217,0.102-0.344c-0.012-0.018-0.021-0.039-0.031-0.059l0,0v-0.002
				c-0.004-0.021-0.01-0.041-0.01-0.059v-0.016c0-0.16,0.049-0.316,0.133-0.447c0.035,0.242,0.113,0.48,0.182,0.713
				c0.23,0.771,0.418,1.514-0.025,2.254c-0.004,0.004-0.01,0.012-0.012,0.02H54.337c0-0.008-0.004-0.016-0.008-0.02
				C53.886,24.36,54.071,23.618,54.302,22.846z M53.655,25.737l0.025-0.055h7.76h5.683h7.76l0.023,0.055
				c0.111,0.25,0.205,0.506,0.291,0.766c-0.059,0.1-0.113,0.205-0.158,0.314c-0.016,0.043-0.033,0.082-0.049,0.129
				c-0.084,0.238-0.133,0.494-0.143,0.748h-0.002v0.086c0,0.1,0.012,0.199,0.035,0.297c-0.148,0.135-0.266,0.281-0.357,0.457
				c-0.166,0.307-0.217,0.652-0.217,0.998v0.084h0.002v0.004c0,0.221-0.021,0.68-0.18,0.844c-0.193-0.18-0.223-0.678-0.223-0.928
				l0,0c0-0.455-0.139-0.9-0.408-1.264c-0.053-0.064-0.104-0.127-0.162-0.188l0.004-0.008c0.014-0.07,0.023-0.141,0.027-0.209l0,0
				V27.78c0-0.52-0.303-0.854-0.643-1.201l0,0c-0.105-0.109-0.355-0.35-0.361-0.504c-0.006-0.18-0.148-0.334-0.33-0.338
				c-0.193-0.006-0.346,0.148-0.354,0.338c-0.002,0.154-0.254,0.395-0.363,0.504c-0.336,0.348-0.641,0.682-0.641,1.201
				c0,0.102,0.01,0.207,0.033,0.305c-0.117,0.117-0.213,0.254-0.299,0.396c-0.021,0.043-0.045,0.088-0.064,0.133
				c-0.131,0.26-0.199,0.545-0.203,0.836h-0.008v0.166h0.008c-0.006,0.115-0.016,0.236-0.049,0.354
				c-0.053,0.184-0.148,0.352-0.316,0.445l-0.004,0.004c-0.072,0.039-0.158,0.063-0.24,0.063h-0.016
				c-0.076-0.002-0.152-0.023-0.219-0.061c-0.283-0.146-0.369-0.5-0.369-0.791c0.004-0.033,0.004-0.063,0.004-0.098V29.45H68.93
				c-0.014-0.424-0.152-0.836-0.408-1.178c-0.049-0.064-0.104-0.127-0.162-0.188l0.006-0.008c0.014-0.07,0.023-0.141,0.029-0.209
				h0.004V27.78c0-0.52-0.309-0.854-0.646-1.201c-0.105-0.109-0.357-0.35-0.365-0.504c-0.004-0.158-0.111-0.299-0.264-0.33
				c-0.025-0.004-0.045-0.008-0.063-0.008c-0.191-0.006-0.348,0.15-0.355,0.338c-0.002,0.154-0.254,0.395-0.359,0.504
				c-0.164,0.17-0.32,0.332-0.438,0.516c-0.125,0.195-0.211,0.416-0.211,0.686c0,0.102,0.016,0.207,0.039,0.305
				c-0.115,0.117-0.217,0.254-0.299,0.396c-0.025,0.043-0.051,0.088-0.066,0.133c-0.127,0.26-0.197,0.545-0.205,0.836h-0.004v0.166
				c-0.01,0.328-0.158,0.615-0.471,0.756c-0.121,0.053-0.25,0.078-0.381,0.08l-0.01-0.002c-0.127,0.002-0.26-0.021-0.377-0.072
				c-0.354-0.146-0.521-0.473-0.521-0.846c0-0.453-0.143-0.896-0.412-1.26c-0.049-0.064-0.104-0.127-0.162-0.188v-0.012
				c0.02-0.068,0.027-0.137,0.031-0.205h0.004V27.78c0-0.27-0.08-0.49-0.207-0.686c-0.117-0.184-0.271-0.346-0.441-0.516
				c-0.104-0.109-0.352-0.346-0.359-0.502c-0.004-0.182-0.145-0.336-0.33-0.34c-0.025,0-0.053,0-0.086,0.008
				c-0.148,0.035-0.262,0.172-0.266,0.33c-0.004,0.154-0.26,0.395-0.361,0.504c-0.344,0.348-0.646,0.682-0.646,1.201
				c0,0.102,0.012,0.207,0.037,0.305c-0.117,0.117-0.217,0.254-0.299,0.396c-0.023,0.043-0.043,0.088-0.066,0.133
				c-0.125,0.26-0.195,0.545-0.207,0.836l0,0v0.166l0,0v0.01c0,0.293-0.086,0.648-0.365,0.795c-0.066,0.039-0.143,0.059-0.221,0.061
				h-0.014c-0.084,0-0.166-0.021-0.236-0.063c-0.293-0.154-0.371-0.527-0.371-0.832v-0.055c0-0.453-0.141-0.896-0.412-1.26
				c-0.051-0.064-0.102-0.127-0.16-0.188l0.006-0.012c0.014-0.068,0.025-0.137,0.031-0.205h0.002V27.78
				c0-0.52-0.305-0.854-0.646-1.201c-0.105-0.109-0.355-0.346-0.363-0.502c-0.002-0.182-0.145-0.336-0.332-0.34
				c-0.191-0.006-0.344,0.15-0.348,0.338c-0.006,0.154-0.262,0.395-0.365,0.504l0,0c-0.338,0.348-0.643,0.682-0.643,1.201
				c0,0.102,0.012,0.207,0.035,0.305c-0.115,0.117-0.215,0.254-0.299,0.396c-0.023,0.043-0.049,0.088-0.07,0.133
				c-0.123,0.26-0.191,0.545-0.203,0.836h-0.002v0.166c-0.004,0.254-0.045,0.684-0.219,0.848c-0.16-0.166-0.184-0.631-0.184-0.848
				v-0.031v-0.023c0.004-0.006,0.004-0.016,0.004-0.029c0-0.346-0.049-0.691-0.213-0.998c-0.096-0.176-0.217-0.322-0.359-0.457
				v-0.004c0.018-0.068,0.025-0.137,0.031-0.205h0.002V27.78c0-0.441-0.123-0.902-0.352-1.277
				C53.45,26.243,53.548,25.987,53.655,25.737z M53.354,32.889c-1.318-1.447-1.156-2.928-0.766-4.715
				c0.094-0.41,0.193-0.832,0.223-1.256c0.15,0.262,0.223,0.57,0.223,0.861v0.031c-0.002,0.035-0.004,0.066-0.014,0.098
				l-0.008,0.033v0.014c-0.01,0.025-0.023,0.053-0.033,0.082c-0.072,0.154-0.029,0.344,0.111,0.441
				c0.135,0.111,0.27,0.23,0.352,0.391c0.105,0.199,0.129,0.441,0.129,0.662c0,0.01,0,0.016,0,0.023V29.6v0.006
				c-0.002,0.443,0.074,1.072,0.416,1.389c0.129,0.117,0.287,0.188,0.463,0.186c0.174-0.002,0.326-0.082,0.445-0.197
				c0.35-0.33,0.441-0.959,0.443-1.416V29.5c0.002-0.197,0.049-0.396,0.135-0.578c0.018-0.029,0.031-0.059,0.045-0.084
				c0.084-0.145,0.188-0.27,0.316-0.371l0.002-0.002c0.127-0.104,0.166-0.283,0.092-0.432v0.004c-0.014-0.033,0,0-0.01-0.033
				l-0.006-0.016c-0.002-0.002-0.002-0.01-0.006-0.016v-0.004c-0.021-0.063-0.027-0.125-0.027-0.189
				c0-0.264,0.266-0.527,0.439-0.705c0.074-0.074,0.152-0.152,0.227-0.234c0.066,0.082,0.143,0.16,0.219,0.234
				c0.172,0.178,0.441,0.441,0.441,0.705v0.033c0,0.033-0.004,0.064-0.014,0.096l-0.01,0.033v0.014
				c-0.008,0.025-0.02,0.053-0.035,0.082c-0.072,0.154-0.025,0.34,0.111,0.441h0.004c0.037,0.029,0.07,0.063,0.105,0.098
				c0.039,0.039,0.074,0.08,0.105,0.125c0.18,0.238,0.273,0.529,0.273,0.826v0.033v0.023c-0.008,0.576,0.197,1.17,0.732,1.457
				c0.17,0.094,0.355,0.139,0.547,0.139h0.02c0.184,0,0.369-0.045,0.529-0.135c0.531-0.277,0.742-0.861,0.738-1.428v-0.012
				l-0.002-0.039v-0.059c0.006-0.203,0.051-0.4,0.137-0.586c0.016-0.029,0.033-0.059,0.047-0.084c0.08-0.145,0.188-0.27,0.313-0.371
				c0.131-0.104,0.17-0.283,0.1-0.434v0.004c-0.016-0.033-0.004-0.004-0.012-0.033l-0.008-0.016
				c-0.006-0.014-0.006-0.006-0.006-0.008v-0.002l-0.002-0.01c-0.018-0.063-0.027-0.125-0.027-0.189c0-0.264,0.27-0.527,0.439-0.705
				c0.051-0.047,0.102-0.102,0.148-0.152l0.074-0.082c0.072,0.082,0.148,0.16,0.225,0.234c0.172,0.178,0.443,0.441,0.443,0.705
				v0.033c-0.004,0.033-0.01,0.064-0.018,0.096l-0.006,0.033v0.014c-0.012,0.025-0.023,0.053-0.035,0.082
				c-0.07,0.154-0.027,0.34,0.111,0.441h0.002c0.037,0.029,0.066,0.063,0.105,0.098c0.035,0.039,0.074,0.08,0.104,0.125
				c0.096,0.123,0.166,0.262,0.211,0.408c0.043,0.137,0.059,0.279,0.059,0.422c0.006,0.664,0.324,1.236,0.954,1.498
				c0.195,0.082,0.418,0.125,0.631,0.125h0.018c0.221-0.004,0.443-0.051,0.646-0.143c0.59-0.264,0.883-0.809,0.883-1.445v-0.068
				c0-0.131,0.021-0.264,0.061-0.387c0.018-0.064,0.043-0.127,0.07-0.189c0.016-0.029,0.033-0.059,0.047-0.084
				c0.082-0.145,0.189-0.27,0.313-0.371c0.131-0.1,0.172-0.283,0.1-0.43v-0.004c-0.014-0.029,0,0.004-0.012-0.029l-0.008-0.018
				v-0.006v-0.002l-0.006-0.01c-0.02-0.063-0.029-0.125-0.029-0.189c0-0.264,0.27-0.527,0.441-0.705
				c0.076-0.074,0.15-0.152,0.225-0.234c0.021,0.029,0.047,0.051,0.074,0.078c0.045,0.055,0.094,0.109,0.146,0.156
				c0.174,0.178,0.441,0.441,0.441,0.705v0.033c0,0.033-0.008,0.066-0.014,0.1l-0.006,0.029l-0.002,0.01
				c-0.008,0.027-0.021,0.055-0.035,0.086c-0.07,0.154-0.025,0.34,0.113,0.441c0.037,0.029,0.074,0.063,0.105,0.098
				c0.039,0.039,0.074,0.08,0.109,0.125c0.17,0.23,0.26,0.51,0.27,0.797v0.033c0,0.023,0,0.045,0,0.064
				c-0.002,0.014-0.002,0.023,0,0.033c0,0.566,0.207,1.143,0.734,1.416c0.164,0.09,0.346,0.135,0.531,0.135l0.02,0.002
				c0.191-0.002,0.379-0.047,0.549-0.141l0.008-0.006l0.014-0.006c0.516-0.291,0.715-0.877,0.713-1.445v-0.018l-0.004-0.068
				c0.006-0.201,0.055-0.396,0.141-0.576c0.014-0.029,0.027-0.059,0.045-0.084c0.078-0.145,0.186-0.27,0.313-0.371
				c0.127-0.1,0.17-0.283,0.1-0.43v-0.004c-0.008-0.012-0.012-0.02-0.012-0.029l-0.012-0.018v-0.006v-0.002l-0.006-0.01
				c-0.018-0.063-0.029-0.125-0.029-0.189c0-0.264,0.273-0.527,0.445-0.705c0.074-0.074,0.152-0.152,0.221-0.234
				c0.072,0.082,0.145,0.16,0.221,0.234c0.176,0.178,0.443,0.441,0.443,0.705v0.033c0,0.035-0.006,0.066-0.014,0.1l-0.004,0.029
				l-0.006,0.008c-0.004,0.029-0.02,0.057-0.031,0.088c-0.068,0.148-0.033,0.326,0.094,0.428l0.016,0.014
				c0.041,0.029,0.074,0.063,0.109,0.098c0.039,0.039,0.072,0.08,0.105,0.125c0.178,0.238,0.271,0.529,0.271,0.83
				c-0.004,0.469,0.084,1.113,0.439,1.451c0.123,0.115,0.275,0.191,0.449,0.197c0.178,0.002,0.334-0.068,0.461-0.186
				c0.006-0.006,0.016-0.016,0.025-0.02c0.318-0.324,0.391-0.926,0.391-1.365v-0.043v-0.035c0-0.221,0.025-0.463,0.127-0.662
				c0.086-0.162,0.223-0.289,0.369-0.402c0.127-0.1,0.166-0.285,0.096-0.434l0,0c-0.016-0.029,0,0.004-0.014-0.029l-0.008-0.018
				v-0.006v-0.002l-0.004-0.014c-0.021-0.059-0.029-0.121-0.029-0.186l-0.002-0.037c0.002-0.188,0.041-0.379,0.104-0.559
				c0.012-0.029,0.023-0.059,0.035-0.09c0.023-0.059,0.053-0.117,0.082-0.172c0.035,0.422,0.133,0.846,0.221,1.252
				c0.398,1.787,0.559,3.268-0.76,4.715H53.354z M48.005,38.506l-0.857,0.975l-0.877-0.828L46.05,38.44v0.006
				c-0.279-0.234-0.635-0.357-0.996-0.338c-0.072,0.002-0.146,0.014-0.221,0.025c-0.303,0.063-0.572,0.223-0.779,0.453l-0.023,0.021
				c-0.115,0.135-0.203,0.287-0.268,0.449c-0.076,0.201-0.113,0.418-0.104,0.633c0.008,0.172,0.043,0.34,0.104,0.496
				c0.074,0.195,0.188,0.373,0.34,0.525l0,0l1.064,1.014l-1.404,1.598l-2.014,2.289l-1.828-1.73l-3.061-2.898l3.061-3.475
				l0.359-0.412l1.215,1.148l0.061,0.066l0.008-0.01c0.273,0.23,0.631,0.355,0.99,0.34c0.389-0.02,0.75-0.195,1.01-0.484
				l0.033-0.035c0.063-0.078,0.119-0.164,0.166-0.252c0.133-0.246,0.201-0.523,0.188-0.805v-0.012v-0.002
				c-0.01-0.24-0.072-0.471-0.188-0.676c-0.068-0.125-0.156-0.244-0.262-0.348L43.478,36l-1.217-1.15l1.115-1.266l0.018-0.023
				c0.248-0.295,0.377-0.682,0.359-1.066c-0.018-0.393-0.18-0.766-0.459-1.041l-0.039-0.035c-0.279-0.248-0.641-0.383-1.01-0.373
				c-0.006,0-0.012,0-0.023,0c-0.363,0.016-0.701,0.174-0.957,0.43h-0.002l-1.168,1.324l-0.174-0.164l-1.102-1.045l-0.002,0.006
				c-0.279-0.236-0.637-0.361-1-0.34c-0.068,0.002-0.145,0.012-0.217,0.023c-0.297,0.063-0.563,0.217-0.764,0.438l-0.049,0.057
				c-0.254,0.295-0.381,0.682-0.361,1.064l0.004,0.094h0.002c0.035,0.35,0.186,0.678,0.434,0.926v0.004l1.25,1.182l-3.42,3.887
				l-1.26-1.193l-1.773-1.676l-1.975-1.873l1.975-2.242l1.445-1.645l0.328,0.311l0.709,0.668l0.006,0.008
				c0.283,0.262,0.666,0.406,1.047,0.387c0.381-0.018,0.727-0.184,0.99-0.461l0.006,0.002l0.041-0.051
				c0.248-0.291,0.377-0.682,0.361-1.066V30.09c-0.018-0.383-0.17-0.75-0.441-1.02v-0.002l-1.07-1.012l2.998-3.406l1.838,1.742
				l3.842,3.639l2.508,2.375l1.734,1.645l2.139,2.025L48.005,38.506z M37.462,23.096l-0.012-0.014
				c-0.043-0.043-0.066-0.105-0.068-0.168c-0.002-0.064,0.014-0.127,0.057-0.178l0.773-0.881l0.021-0.021
				c0.041-0.037,0.094-0.059,0.152-0.063c0.059,0,0.119,0.018,0.162,0.055L62.774,44.78h-2.422L37.462,23.096z M59.345,44.78h-0.299
				h-0.299c0.063-0.131,0.123-0.26,0.186-0.389l0.113,0.109L59.345,44.78z M44.271,70.097l-0.002,0.002l-0.02,0.021
				c-0.074,0.061-0.16,0.096-0.25,0.111c-0.043,0.008-0.084,0.01-0.123,0.01c-0.039,0.004-0.074,0-0.113,0
				c-0.266-0.02-0.543-0.125-0.773-0.24l-0.109-0.057l-0.117,0.027c-0.49,0.113-0.934,0.328-1.322,0.656
				c-0.393,0.334-0.689,0.756-0.916,1.213l-0.207,0.422l0.455,0.082l0.014,0.002c0.16,0.027,0.324,0.063,0.486,0.102
				c0.166,0.049,0.328,0.096,0.486,0.158c0.76,0.279,1.439,0.725,2.004,1.295c0.07,0.068,0.133,0.143,0.201,0.215l0.029,0.037
				c0.979,1.117,1.479,2.6,1.41,4.076v0.016c-0.01,0.232-0.035,0.465-0.076,0.695c-0.188,1.174-0.729,2.254-1.564,3.102
				c-0.039,0.043-0.088,0.082-0.125,0.125l-0.041,0.037c-0.709,0.664-1.576,1.127-2.525,1.34c-0.299,0.066-0.604,0.105-0.91,0.117
				c-0.078,0.004-0.16,0.008-0.24,0.008c-1.543-0.004-3.029-0.693-4.051-1.855l-0.023-0.025l-0.025-0.027l-0.43-0.506l-0.184,0.523
				l-0.012,0.033c-0.039,0.113-0.088,0.221-0.133,0.332c-0.051,0.107-0.102,0.217-0.158,0.322c-0.287,0.555-0.666,1.059-1.115,1.488
				l-0.037,0.035c-0.104,0.094-0.203,0.184-0.316,0.273c-0.525,0.42-1.133,0.742-1.773,0.943c-0.588,0.186-1.211,0.271-1.834,0.242
				c-1.441-0.07-2.775-0.717-3.746-1.783h0.004l-0.082-0.086c-0.971-1.115-1.473-2.602-1.41-4.08v-0.014
				c0.012-0.232,0.035-0.463,0.074-0.693c0.201-1.209,0.768-2.326,1.648-3.184l0,0l0.088-0.084c0.207-0.191,0.426-0.369,0.654-0.527
				c0.078-0.053,0.156-0.104,0.24-0.148c0.393-0.246,0.826-0.438,1.275-0.568l0.537-0.158l-0.381-0.42l-0.055-0.057l-0.039-0.041
				l-0.025-0.035c-0.975-1.121-1.477-2.602-1.41-4.078c0.063-1.471,0.664-2.863,1.717-3.893l0.006,0.004l0.061-0.063l0.059-0.055
				l0,0c0.736-0.678,1.648-1.139,2.619-1.332c0.416-0.084,0.84-0.115,1.268-0.096c0.168,0.008,0.34,0.023,0.506,0.049
				c1.25,0.178,2.393,0.797,3.244,1.742v0.004l0.057,0.055l0.057,0.07l0.002-0.002c0.262,0.309,0.486,0.641,0.678,0.994
				c0.068,0.121,0.129,0.246,0.188,0.373c0.285,0.639,0.455,1.332,0.5,2.033l0.029,0.48l0.436-0.18
				c0.469-0.193,0.898-0.467,1.246-0.836l0.049-0.049c0.33-0.365,0.561-0.791,0.701-1.26l0.037-0.113l-0.039-0.115l-0.008-0.01
				c-0.027-0.086-0.057-0.174-0.078-0.262l-0.004-0.01c-0.023-0.08-0.037-0.16-0.055-0.242c-0.037-0.254-0.043-0.617,0.158-0.809
				l0.01-0.012c0.26-0.232,0.738-0.102,1.027,0.012c0.264,0.105,0.518,0.254,0.748,0.42c0.021,0.027,0.045,0.051,0.068,0.072
				c0.158,0.121,0.311,0.25,0.455,0.389c0.029,0.029,0.061,0.061,0.086,0.088c0.09,0.086,0.176,0.176,0.256,0.268l0.01,0.008
				l0.004,0.01c0.01,0.006,0.014,0.012,0.018,0.02c0.162,0.184,0.309,0.373,0.447,0.576l0.029,0.043l0.006,0.008
				c0.029,0.043,0.053,0.082,0.08,0.125l0.002,0.002c0.021,0.041,0.049,0.084,0.072,0.125c0.014,0.021,0.027,0.045,0.049,0.066
				c0.006,0.008,0.014,0.014,0.021,0.02c0.139,0.26,0.256,0.533,0.336,0.814C44.44,69.335,44.524,69.847,44.271,70.097z
				 M44.333,67.401c-0.152-0.227-0.322-0.441-0.5-0.645c0,0-0.418-0.441-0.605-0.607l3.273-3.1l0.172,2.131L44.333,67.401z
				 M80.107,77.337c-0.287,3.477-3.859,6.375-7.383,7.475c-0.9,0.283-1.795,0.447-2.631,0.473
				c-0.08,0.004-11.392,0.004-11.392,0.004c-0.9,0-1.877-0.168-2.865-0.477c-3.521-1.1-7.098-3.998-7.379-7.475l-0.453-5.518
				L45.87,45.588h36.823l-0.4,4.949L80.107,77.337z M81.889,65.181l0.176-2.131l3.271,3.1c-0.205,0.176-0.953,1.025-1.104,1.252
				L81.889,65.181z M103.965,79.499c0.068,1.475-0.434,2.953-1.398,4.068h-0.006l-0.033,0.047c-0.973,1.098-2.324,1.764-3.793,1.834
				c-0.082,0.004-0.166,0.004-0.248,0.004c-1.219,0-2.41-0.43-3.357-1.189c-0.113-0.09-0.223-0.186-0.326-0.283l-0.039-0.035
				c-0.449-0.428-0.822-0.928-1.107-1.479c-0.055-0.105-0.109-0.215-0.154-0.322c-0.053-0.111-0.098-0.219-0.137-0.332l-0.01-0.031
				l-0.184-0.529l-0.383,0.451l-0.049,0.059l-0.025,0.027l-0.02,0.025c-1.021,1.162-2.508,1.852-4.055,1.855
				c-0.078,0-0.158-0.004-0.24-0.008c-0.303-0.012-0.609-0.051-0.91-0.117c-0.947-0.213-1.818-0.676-2.527-1.342l-0.035-0.035
				c-0.574-0.545-1.016-1.197-1.314-1.916c-0.176-0.418-0.305-0.857-0.379-1.311c-0.037-0.225-0.063-0.449-0.074-0.678l0,0v-0.033
				c-0.039-0.865,0.119-1.732,0.453-2.529c0.234-0.563,0.557-1.088,0.963-1.555l0.031-0.037c0.602-0.676,1.352-1.193,2.199-1.502
				c0.158-0.063,0.32-0.109,0.486-0.158c0.162-0.039,0.322-0.074,0.49-0.102l0.461-0.084l-0.205-0.422
				c-0.227-0.457-0.525-0.879-0.916-1.213c-0.385-0.328-0.83-0.543-1.326-0.656l-0.111-0.027l-0.109,0.057
				c-0.266,0.131-0.59,0.25-0.889,0.24c-0.041,0-0.082-0.002-0.121-0.01c-0.092-0.016-0.178-0.051-0.252-0.111l-0.012-0.012
				l-0.018-0.018c-0.244-0.252-0.162-0.758-0.084-1.066c0.082-0.281,0.201-0.555,0.34-0.814c0.01-0.006,0.016-0.012,0.02-0.02
				c0.02-0.021,0.039-0.045,0.049-0.068c0.023-0.039,0.049-0.082,0.072-0.121l0.002-0.002c0.027-0.041,0.053-0.084,0.082-0.127
				l0.006-0.006c0.146-0.219,0.305-0.428,0.477-0.625c0.004-0.004,0.014-0.01,0.018-0.016l0.016-0.02
				c0.08-0.09,0.162-0.18,0.252-0.266c0.027-0.027,0.057-0.059,0.088-0.088c0.146-0.139,0.293-0.268,0.455-0.389
				c0.025-0.021,0.047-0.045,0.064-0.072c0.234-0.166,0.486-0.314,0.752-0.42c0.291-0.117,0.768-0.244,1.029-0.01l0.004,0.008
				c0.207,0.193,0.201,0.555,0.158,0.811c-0.012,0.082-0.027,0.164-0.049,0.242l-0.008,0.01c-0.021,0.092-0.047,0.18-0.08,0.268
				l-0.043,0.119l0.035,0.113c0.145,0.469,0.375,0.895,0.701,1.26l0.045,0.049c0.354,0.369,0.781,0.643,1.25,0.836l0.441,0.18
				l0.027-0.48c0.043-0.701,0.213-1.393,0.5-2.033c0.057-0.127,0.117-0.252,0.182-0.373c0.195-0.361,0.434-0.701,0.697-1.012
				l0.006,0.002l0.041-0.057l0.049-0.051h-0.002c0.857-0.949,1.996-1.568,3.252-1.748c0.162-0.023,0.33-0.039,0.504-0.047
				c0.996-0.047,1.988,0.195,2.854,0.68c0.391,0.215,0.75,0.482,1.078,0.791l0.084,0.082h0.002c1.047,1.025,1.65,2.416,1.713,3.881
				c0.064,1.477-0.436,2.957-1.406,4.074l-0.049,0.053l-0.02,0.027l-0.438,0.477l0.535,0.158c0.449,0.131,0.881,0.322,1.281,0.568
				c0.08,0.045,0.16,0.096,0.236,0.148c0.227,0.158,0.449,0.332,0.65,0.523l0.104,0.096l0,0c0.867,0.855,1.438,1.967,1.639,3.176
				c0.035,0.23,0.059,0.461,0.068,0.693V79.499z"/>
			<path fill="#4F5858" d="M102.014,79.128c-0.131-0.797-0.514-1.533-1.1-2.092l-0.041-0.039c-0.646-0.6-1.508-0.949-2.387-0.949
				c-0.055,0-0.111,0.002-0.164,0.002c-0.947,0.047-1.82,0.473-2.451,1.176l-0.074,0.08l0.004,0.002
				c-0.295,0.348-0.52,0.748-0.672,1.176c-0.166,0.461-0.24,0.953-0.221,1.443c0.018,0.383,0.092,0.754,0.221,1.109
				c0.188,0.527,0.482,1.006,0.887,1.406v0.006l0.082,0.07c0.463,0.43,1.021,0.729,1.639,0.865c0.248,0.057,0.5,0.082,0.75,0.082
				c0.969,0,1.896-0.404,2.572-1.129h0.002l0.1-0.115l0,0c0.619-0.723,0.945-1.682,0.9-2.633
				C102.057,79.435,102.037,79.282,102.014,79.128z M100.652,81.753L100.652,81.753l-0.049,0.061
				c-0.553,0.609-1.316,0.953-2.117,0.953c-0.203,0-0.406-0.023-0.607-0.068c-0.498-0.109-0.955-0.354-1.332-0.703l-0.088-0.094l0,0
				c-0.531-0.537-0.836-1.252-0.865-2.008c-0.033-0.771,0.227-1.547,0.729-2.137l0.008,0.006l0.027-0.047
				c0.512-0.576,1.221-0.924,1.998-0.963c0.041,0,0.086-0.002,0.131-0.002c0.719,0,1.41,0.279,1.936,0.77l0.035,0.035
				c0.471,0.453,0.775,1.047,0.883,1.691c0.018,0.123,0.035,0.248,0.035,0.373C101.414,80.392,101.152,81.165,100.652,81.753z"/>
			<path fill="#4F5858" d="M72.725,61.663c0.441-0.188,0.924-0.289,1.42-0.289c1.104,0,2.168,0.49,2.834,1.379l0.209,0.275
				l-0.061-0.342c-0.344-1.91-1.191-3.682-2.426-5.182l-0.035-0.041l-0.051,0.014c-0.688,0.207-1.318,0.514-1.891,0.898
				c-1.17,0.791-2.078,1.922-2.631,3.221c-0.299,0.699-0.496,1.449-0.576,2.223c-0.023,0.262-0.041,0.523-0.041,0.789
				s0.018,0.529,0.041,0.787c0.08,0.775,0.277,1.525,0.576,2.227c0.553,1.297,1.461,2.426,2.631,3.219
				c0.572,0.385,1.203,0.691,1.891,0.9l0.051,0.012l0.035-0.041c1.234-1.498,2.082-3.27,2.426-5.182l0.061-0.342l-0.209,0.279
				c-0.666,0.885-1.73,1.377-2.834,1.377c-0.496,0-0.979-0.102-1.42-0.293c-1.17-0.492-2.039-1.58-2.039-2.943
				S71.555,62.155,72.725,61.663z"/>
			<path fill="#4F5858" d="M40.085,74.269c-0.055-0.004-0.111-0.006-0.164-0.006c-0.863,0.002-1.707,0.334-2.348,0.912l-0.004-0.008
				l-0.064,0.072c-0.709,0.674-1.115,1.602-1.158,2.578c-0.01,0.184,0,0.373,0.018,0.555c0.08,0.754,0.375,1.463,0.863,2.041
				l-0.006,0.006l0.057,0.059c0.639,0.723,1.531,1.158,2.496,1.201c0.045,0.002,0.094,0.002,0.146,0.002
				c0.135,0,0.262-0.008,0.389-0.02c0.748-0.086,1.443-0.41,1.994-0.92h0.002l0.031-0.031c0.596-0.563,0.979-1.303,1.113-2.107
				c0.025-0.154,0.039-0.309,0.047-0.461c0.041-0.963-0.287-1.928-0.92-2.654l-0.041-0.045c-0.529-0.586-1.225-0.986-2.006-1.125
				c-0.143-0.027-0.289-0.043-0.432-0.049H40.085z M42.048,75.929l0.033,0.039c0.508,0.588,0.768,1.367,0.732,2.143
				c-0.002,0.125-0.016,0.25-0.039,0.373c-0.105,0.654-0.42,1.256-0.9,1.713l-0.027,0.023c-0.443,0.414-1.004,0.676-1.611,0.744
				c-0.102,0.01-0.211,0.016-0.314,0.016c-0.039,0-0.08,0-0.119-0.002c-0.783-0.033-1.502-0.391-2.02-0.975l-0.027-0.031
				c-0.402-0.473-0.648-1.057-0.711-1.674c-0.018-0.15-0.02-0.299-0.016-0.451c0.035-0.795,0.367-1.547,0.945-2.096l0.025-0.027
				c0.523-0.48,1.211-0.756,1.922-0.756c0.047,0,0.088,0,0.135,0.002h0.031c0.113,0.008,0.223,0.023,0.328,0.039
				C41.05,75.124,41.62,75.45,42.048,75.929z"/>
			<path fill="#4F5858" d="M35.347,67.274l-0.021-0.025l-0.018-0.018c-0.498-0.559-1.148-0.947-1.871-1.111
				c-0.191-0.043-0.389-0.068-0.59-0.076c-0.404-0.02-0.803,0.033-1.184,0.152c-0.5,0.154-0.971,0.42-1.357,0.777h-0.002
				l-0.059,0.061c-0.697,0.668-1.096,1.582-1.135,2.545c-0.047,0.967,0.283,1.936,0.922,2.664l0.035,0.035
				c0.43,0.482,0.98,0.838,1.596,1.025c0.133,0.043,0.27,0.076,0.414,0.102c0.143,0.025,0.295,0.043,0.441,0.047h0.02
				c0.301,0.016,0.605-0.012,0.898-0.078c0.604-0.139,1.172-0.436,1.627-0.857h0.008l0.041-0.047
				c0.938-0.898,1.332-2.229,1.068-3.498C36.052,68.345,35.769,67.761,35.347,67.274z M34.7,71.907L34.7,71.907l-0.092,0.084
				c-0.334,0.311-0.736,0.537-1.172,0.66c-0.287,0.08-0.584,0.115-0.887,0.102c-0.121-0.006-0.238-0.02-0.359-0.041
				c-0.184-0.033-0.357-0.082-0.527-0.148c-0.42-0.162-0.801-0.428-1.105-0.771l-0.039-0.041c-0.502-0.586-0.766-1.365-0.729-2.141
				s0.352-1.512,0.91-2.059l0.09-0.078h-0.008c0.264-0.232,0.559-0.414,0.881-0.539c0.365-0.141,0.756-0.209,1.15-0.193
				c0.215,0.012,0.422,0.047,0.623,0.102c0.523,0.146,0.988,0.441,1.361,0.854l0.074,0.084c0.322,0.389,0.541,0.846,0.643,1.336
				C35.72,70.124,35.423,71.181,34.7,71.907z"/>
			<path fill="#4F5858" d="M59.046,65.411c0.029-0.266,0.041-0.533,0.041-0.803c0-0.268-0.012-0.539-0.041-0.805
				c-0.23-2.201-1.406-4.211-3.209-5.428c-0.568-0.385-1.205-0.691-1.889-0.898l-0.051-0.014l-0.037,0.041
				c-1.234,1.5-2.084,3.271-2.422,5.182l-0.061,0.342l0.207-0.275c0.666-0.889,1.732-1.379,2.83-1.379
				c0.5,0,0.982,0.102,1.422,0.289c1.17,0.492,2.043,1.582,2.043,2.945s-0.869,2.453-2.043,2.947
				c-0.439,0.188-0.922,0.289-1.422,0.289c-1.098,0-2.164-0.492-2.83-1.377l-0.207-0.279l0.061,0.342
				c0.338,1.912,1.191,3.684,2.424,5.182l0.035,0.041l0.051-0.012c0.686-0.209,1.32-0.516,1.889-0.898
				C57.64,69.628,58.815,67.614,59.046,65.411z"/>
			<path fill="#4F5858" d="M61.44,66.819c0.094-0.736,0.133-1.479,0.133-2.211c0-0.734-0.039-1.475-0.133-2.211
				c-0.158-1.342-0.471-2.666-0.967-3.912c-0.354-0.896-0.824-1.809-1.428-2.602c-0.406-0.54-0.881-1.022-1.414-1.415l-0.037-0.035
				l-0.047,0.027c-0.6,0.33-1.172,0.705-1.711,1.123c-0.229,0.18-0.451,0.366-0.67,0.559l-0.096,0.088l0.123,0.051
				c0.221,0.09,0.439,0.193,0.643,0.307c1.387,0.74,2.465,1.9,3.209,3.26c0.789,1.443,1.199,3.117,1.199,4.76
				c0,1.645-0.41,3.316-1.199,4.76c-0.744,1.361-1.822,2.52-3.209,3.262c-0.203,0.111-0.422,0.217-0.643,0.307l-0.123,0.049
				l0.096,0.09c0.219,0.193,0.441,0.375,0.67,0.555c0.539,0.42,1.111,0.797,1.711,1.129l0.047,0.023l0.037-0.031
				c0.533-0.393,1.008-0.879,1.414-1.418c0.604-0.795,1.074-1.703,1.428-2.602C60.97,69.485,61.282,68.161,61.44,66.819z"/>
			<path fill="#4F5858" d="M62.657,52.842c-0.408,0.047-0.809,0.107-1.217,0.191c-0.658,0.133-1.314,0.314-1.949,0.545l-0.104,0.039
				l0.066,0.092c0.867,1.137,1.52,2.514,1.986,3.977c0.73,2.268,1.025,4.75,1.025,6.922s-0.295,4.652-1.025,6.916
				c-0.467,1.469-1.119,2.846-1.986,3.984l-0.066,0.092l0.104,0.037c0.641,0.23,1.291,0.412,1.949,0.545
				c0.408,0.082,0.809,0.145,1.217,0.191c0.303,0.037,0.609,0.059,0.917,0.076l0.086,0.006V52.764l-0.086,0.004
				C63.267,52.784,62.96,52.805,62.657,52.842z"/>
		</g>
	</g>
</g>
</svg>
